  0
SECTION
  2
HEADER
  9
$ACADVER
  1
AC1006
  9
$EXTMIN
 10
-3.180677
 20
-2.811461
  9
$EXTMAX
 10
3.523937
 20
3.965366
  9
$LTSCALE
 40
0.000394
  9
$PDMODE
 70
    35
  9
$PDSIZE
 40
0.000315
  0
ENDSEC
  0
SECTION
  2
TABLES
  0
TABLE
  2
LTYPE
 70
     9
  0
LTYPE
  2
CONTINUOUS
 70
    64
  3
Solid line
 72
    65
 73
     0
 40
0.000000
  0
LTYPE
  2
DASHED
 70
    64
  3
__ __ __ __ __ __ __ __ __ __ __ __ __ __ __
 72
    65
 73
     2
 40
0.000003
 49
0.000002
 49
-0.000001
  0
LTYPE
  2
HIDDEN
 70
    64
  3
 _ _ _ _ _ _ _ _ _ _ _ _ _ _ _ _ _ _ _ _ _ _
 72
    65
 73
     2
 40
0.000001
 49
0.000001
 49
-0.000000
  0
LTYPE
  2
CENTER
 70
    64
  3
____ _ ____ _ ____ _ ____ _ ____ _ ____ _ ____
 72
    65
 73
     4
 40
0.000008
 49
0.000005
 49
-0.000001
 49
0.000001
 49
-0.000001
  0
LTYPE
  2
PHANTOM
 70
    64
  3
_____ _ _ _____ _ _ _____ _ _ _____ _ _ ____
 72
    65
 73
     6
 40
0.000010
 49
0.000005
 49
-0.000001
 49
0.000001
 49
-0.000001
 49
0.000001
 49
-0.000001
  0
LTYPE
  2
DOT
 70
    64
  3
...............................................
 72
    65
 73
     2
 40
0.000001
 49
0.000000
 49
-0.000001
  0
LTYPE
  2
DASHDOT
 70
    64
  3
__ . __ . __ . __ . __ . __ . __ . __ . __ . __
 72
    65
 73
     4
 40
0.000004
 49
0.000002
 49
-0.000001
 49
0.000000
 49
-0.000001
  0
LTYPE
  2
BORDER
 70
    64
  3
__ __ . __ __ . __ __ . __ __ . __ __ . __ __
 72
    65
 73
     6
 40
0.000007
 49
0.000002
 49
-0.000001
 49
0.000002
 49
-0.000001
 49
0.000000
 49
-0.000001
  0
LTYPE
  2
DIVIDE
 70
    64
  3
__ . . __ . . __ . . __ . . __ . . __ . . __
 72
    65
 73
     6
 40
0.000005
 49
0.000002
 49
-0.000001
 49
0.000000
 49
-0.000001
 49
0.000000
 49
-0.000001
  0
LTYPE
  2
DOTDOT
 70
    64
  3
 . .  . .  . .  . .  . .  . . 
 72
    65
 73
     5
 40
0.000002
 49
-0.000001
 49
0.000000
 49
-0.000001
 49
0.000000
 49
-0.000001
  0
ENDTAB
  0
TABLE
  2
STYLE
 70
     2
  0
STYLE
 70
     0
  2
SN0
 40
0.000000
 41
0.000004
 50
0.000000
 71
     0
 42
0.000000
  3
ו
  0
STYLE
 70
    68
  2
SV0
 40
0.000000
 41
0.000004
 50
0.000000
 71
     0
 42
0.000000
  3
ו
  0
ENDTAB
  0
TABLE
  2
LAYER
 70
    11
  0
LAYER
  2
FOREGROUND
 70
    64
 62
     7
  6
CONTINUOUS
  0
LAYER
  2
BACKGROUND
 70
    65
 62
    -7
  6
CONTINUOUS
  0
LAYER
  2
BACKRECT
 70
    64
 62
     7
  6
CONTINUOUS
  0
LAYER
  2
RESIDENT
 70
    64
 62
     7
  6
CONTINUOUS
  0
LAYER
  2
PARK
 70
    64
 62
     7
  6
CONTINUOUS
  0
LAYER
  2
RIVER
 70
    64
 62
     7
  6
CONTINUOUS
  0
LAYER
  2
STREET
 70
    64
 62
     7
  6
CONTINUOUS
  0
LAYER
  2
ROAD
 70
    64
 62
     7
  6
CONTINUOUS
  0
LAYER
  2
RAILWAY
 70
    64
 62
     7
  6
CONTINUOUS
  0
LAYER
  2
ISOLATION
 70
    64
 62
     7
  6
CONTINUOUS
  0
LAYER
  2
ANNOTATION
 70
    64
 62
     7
  6
CONTINUOUS
  0
ENDTAB
  0
ENDSEC
  0
SECTION
  2
ENTITIES
  0
SOLID
  8
BACKRECT
 62
     4
  6
CONTINUOUS
 10
-3.177028
 20
3.949134
 11
3.506122
 21
3.949134
 12
-3.177028
 22
-2.809961
 13
3.518780
 23
-2.809961
  0
POLYLINE
  8
BACKRECT
 62
     1
  6
CONTINUOUS
 66
     1
 40
0.003000
 41
0.003000
 70
     1
  0
VERTEX
  8
BACKRECT
 62
     1
  6
CONTINUOUS
 10
-3.177028
 20
3.949134
  0
VERTEX
  8
BACKRECT
 62
     1
  6
CONTINUOUS
 10
3.506122
 20
3.949134
  0
VERTEX
  8
BACKRECT
 62
     1
  6
CONTINUOUS
 10
3.518780
 20
-2.809961
  0
VERTEX
  8
BACKRECT
 62
     1
  6
CONTINUOUS
 10
-3.177028
 20
-2.809961
  0
SEQEND
  8
0
  0
POLYLINE
  8
RESIDENT
 62
     1
  6
CONTINUOUS
 66
     1
 40
0.003000
 41
0.003000
 70
     1
  0
VERTEX
  8
RESIDENT
 62
     1
  6
CONTINUOUS
 10
-2.320996
 20
1.198350
  0
VERTEX
  8
RESIDENT
 62
     1
  6
CONTINUOUS
 10
-2.319654
 20
-0.020724
  0
VERTEX
  8
RESIDENT
 62
     1
  6
CONTINUOUS
 10
-2.420677
 20
-0.095685
  0
VERTEX
  8
RESIDENT
 62
     1
  6
CONTINUOUS
 10
-2.410709
 20
-0.491969
  0
VERTEX
  8
RESIDENT
 62
     1
  6
CONTINUOUS
 10
-2.084870
 20
-0.488669
  0
VERTEX
  8
RESIDENT
 62
     1
  6
CONTINUOUS
 10
-2.103764
 20
-0.868976
  0
VERTEX
  8
RESIDENT
 62
     1
  6
CONTINUOUS
 10
-1.972016
 20
-1.031559
  0
VERTEX
  8
RESIDENT
 62
     1
  6
CONTINUOUS
 10
-1.827654
 20
-1.025953
  0
VERTEX
  8
RESIDENT
 62
     1
  6
CONTINUOUS
 10
-1.893701
 20
-0.819291
  0
VERTEX
  8
RESIDENT
 62
     1
  6
CONTINUOUS
 10
-1.554094
 20
-0.784157
  0
VERTEX
  8
RESIDENT
 62
     1
  6
CONTINUOUS
 10
-1.355008
 20
-0.731339
  0
VERTEX
  8
RESIDENT
 62
     1
  6
CONTINUOUS
 10
-1.252417
 20
-0.491622
  0
VERTEX
  8
RESIDENT
 62
     1
  6
CONTINUOUS
 10
-0.996449
 20
-0.487559
  0
VERTEX
  8
RESIDENT
 62
     1
  6
CONTINUOUS
 10
-0.987307
 20
-0.700866
  0
VERTEX
  8
RESIDENT
 62
     1
  6
CONTINUOUS
 10
-0.857894
 20
-0.698386
  0
VERTEX
  8
RESIDENT
 62
     1
  6
CONTINUOUS
 10
-0.850709
 20
-0.603543
  0
VERTEX
  8
RESIDENT
 62
     1
  6
CONTINUOUS
 10
-0.704134
 20
-0.600669
  0
VERTEX
  8
RESIDENT
 62
     1
  6
CONTINUOUS
 10
-0.698386
 20
-0.492894
  0
VERTEX
  8
RESIDENT
 62
     1
  6
CONTINUOUS
 10
-0.054016
 20
-0.485370
  0
VERTEX
  8
RESIDENT
 62
     1
  6
CONTINUOUS
 10
-0.049055
 20
0.703591
  0
VERTEX
  8
RESIDENT
 62
     1
  6
CONTINUOUS
 10
-0.051720
 20
1.573016
  0
VERTEX
  8
RESIDENT
 62
     1
  6
CONTINUOUS
 10
-1.811358
 20
1.596173
  0
VERTEX
  8
RESIDENT
 62
     1
  6
CONTINUOUS
 10
-1.810583
 20
1.635094
  0
VERTEX
  8
RESIDENT
 62
     1
  6
CONTINUOUS
 10
-2.072441
 20
1.632598
  0
VERTEX
  8
RESIDENT
 62
     1
  6
CONTINUOUS
 10
-2.073650
 20
1.202138
  0
SEQEND
  8
0
  0
SOLID
  8
RESIDENT
 62
     2
  6
CONTINUOUS
 10
-1.753969
 20
-1.047134
 11
-1.691465
 21
-1.198378
 12
-1.616898
 22
-1.054071
 13
-1.591150
 23
-1.199921
  0
POLYLINE
  8
RESIDENT
 62
     1
  6
CONTINUOUS
 66
     1
 40
0.003000
 41
0.003000
 70
     1
  0
VERTEX
  8
RESIDENT
 62
     1
  6
CONTINUOUS
 10
-1.753969
 20
-1.047134
  0
VERTEX
  8
RESIDENT
 62
     1
  6
CONTINUOUS
 10
-1.691465
 20
-1.198378
  0
VERTEX
  8
RESIDENT
 62
     1
  6
CONTINUOUS
 10
-1.591150
 20
-1.199921
  0
VERTEX
  8
RESIDENT
 62
     1
  6
CONTINUOUS
 10
-1.616898
 20
-1.054071
  0
SEQEND
  8
0
  0
POLYLINE
  8
RESIDENT
 62
     1
  6
CONTINUOUS
 66
     1
 40
0.003000
 41
0.003000
 70
     1
  0
VERTEX
  8
RESIDENT
 62
     1
  6
CONTINUOUS
 10
-2.097354
 20
-1.776331
  0
VERTEX
  8
RESIDENT
 62
     1
  6
CONTINUOUS
 10
-2.038500
 20
-1.783465
  0
VERTEX
  8
RESIDENT
 62
     1
  6
CONTINUOUS
 10
-1.999264
 20
-1.692508
  0
VERTEX
  8
RESIDENT
 62
     1
  6
CONTINUOUS
 10
-1.858370
 20
-1.690724
  0
VERTEX
  8
RESIDENT
 62
     1
  6
CONTINUOUS
 10
-1.851236
 20
-1.621169
  0
VERTEX
  8
RESIDENT
 62
     1
  6
CONTINUOUS
 10
-1.977862
 20
-1.614035
  0
VERTEX
  8
RESIDENT
 62
     1
  6
CONTINUOUS
 10
-1.981429
 20
-1.521295
  0
VERTEX
  8
RESIDENT
 62
     1
  6
CONTINUOUS
 10
-2.052768
 20
-1.519512
  0
SEQEND
  8
0
  0
SOLID
  8
RESIDENT
 62
     2
  6
CONTINUOUS
 10
-1.750276
 20
-1.751713
 11
-1.579272
 21
-1.771831
 12
-1.763209
 22
-1.546220
 13
-1.577835
 23
-1.551969
  0
POLYLINE
  8
RESIDENT
 62
     1
  6
CONTINUOUS
 66
     1
 40
0.003000
 41
0.003000
 70
     1
  0
VERTEX
  8
RESIDENT
 62
     1
  6
CONTINUOUS
 10
-1.750276
 20
-1.751713
  0
VERTEX
  8
RESIDENT
 62
     1
  6
CONTINUOUS
 10
-1.579272
 20
-1.771831
  0
VERTEX
  8
RESIDENT
 62
     1
  6
CONTINUOUS
 10
-1.577835
 20
-1.551969
  0
VERTEX
  8
RESIDENT
 62
     1
  6
CONTINUOUS
 10
-1.763209
 20
-1.546220
  0
SEQEND
  8
0
  0
SOLID
  8
RESIDENT
 62
     2
  6
CONTINUOUS
 10
-1.295276
 20
-1.841512
 11
-1.295276
 21
-1.986583
 12
-1.089512
 22
-1.840031
 13
-1.092472
 23
-1.989543
  0
POLYLINE
  8
RESIDENT
 62
     1
  6
CONTINUOUS
 66
     1
 40
0.003000
 41
0.003000
 70
     1
  0
VERTEX
  8
RESIDENT
 62
     1
  6
CONTINUOUS
 10
-1.295276
 20
-1.841512
  0
VERTEX
  8
RESIDENT
 62
     1
  6
CONTINUOUS
 10
-1.295276
 20
-1.986583
  0
VERTEX
  8
RESIDENT
 62
     1
  6
CONTINUOUS
 10
-1.092472
 20
-1.989543
  0
VERTEX
  8
RESIDENT
 62
     1
  6
CONTINUOUS
 10
-1.089512
 20
-1.840031
  0
SEQEND
  8
0
  0
SOLID
  8
RESIDENT
 62
     2
  6
CONTINUOUS
 10
-1.894020
 20
1.966724
 11
-1.890323
 21
1.816386
 12
-1.672209
 22
1.964260
 13
-1.673441
 23
1.815154
  0
POLYLINE
  8
RESIDENT
 62
     1
  6
CONTINUOUS
 66
     1
 40
0.003000
 41
0.003000
 70
     1
  0
VERTEX
  8
RESIDENT
 62
     1
  6
CONTINUOUS
 10
-1.894020
 20
1.966724
  0
VERTEX
  8
RESIDENT
 62
     1
  6
CONTINUOUS
 10
-1.890323
 20
1.816386
  0
VERTEX
  8
RESIDENT
 62
     1
  6
CONTINUOUS
 10
-1.673441
 20
1.815154
  0
VERTEX
  8
RESIDENT
 62
     1
  6
CONTINUOUS
 10
-1.672209
 20
1.964260
  0
SEQEND
  8
0
  0
SOLID
  8
RESIDENT
 62
     2
  6
CONTINUOUS
 10
-0.351201
 20
1.881697
 11
-0.348736
 21
1.747378
 12
-0.202094
 22
1.880465
 13
-0.202094
 23
1.744913
  0
POLYLINE
  8
RESIDENT
 62
     1
  6
CONTINUOUS
 66
     1
 40
0.003000
 41
0.003000
 70
     1
  0
VERTEX
  8
RESIDENT
 62
     1
  6
CONTINUOUS
 10
-0.351201
 20
1.881697
  0
VERTEX
  8
RESIDENT
 62
     1
  6
CONTINUOUS
 10
-0.348736
 20
1.747378
  0
VERTEX
  8
RESIDENT
 62
     1
  6
CONTINUOUS
 10
-0.202094
 20
1.744913
  0
VERTEX
  8
RESIDENT
 62
     1
  6
CONTINUOUS
 10
-0.202094
 20
1.880465
  0
SEQEND
  8
0
  0
SOLID
  8
RESIDENT
 62
     2
  6
CONTINUOUS
 10
-1.089276
 20
3.940858
 11
-1.089276
 21
3.733772
 12
-0.923606
 22
3.934646
 13
-0.923606
 23
3.731701
  0
POLYLINE
  8
RESIDENT
 62
     1
  6
CONTINUOUS
 66
     1
 40
0.003000
 41
0.003000
 70
     1
  0
VERTEX
  8
RESIDENT
 62
     1
  6
CONTINUOUS
 10
-1.089276
 20
3.940858
  0
VERTEX
  8
RESIDENT
 62
     1
  6
CONTINUOUS
 10
-1.089276
 20
3.733772
  0
VERTEX
  8
RESIDENT
 62
     1
  6
CONTINUOUS
 10
-0.923606
 20
3.731701
  0
VERTEX
  8
RESIDENT
 62
     1
  6
CONTINUOUS
 10
-0.923606
 20
3.934646
  0
SEQEND
  8
0
  0
SOLID
  8
RESIDENT
 62
     2
  6
CONTINUOUS
 10
-0.199500
 20
3.700961
 11
-0.201071
 21
3.565866
 12
-0.463406
 22
3.702531
 13
-0.461835
 23
3.609850
  0
POLYLINE
  8
RESIDENT
 62
     1
  6
CONTINUOUS
 66
     1
 40
0.003000
 41
0.003000
 70
     1
  0
VERTEX
  8
RESIDENT
 62
     1
  6
CONTINUOUS
 10
-0.199500
 20
3.700961
  0
VERTEX
  8
RESIDENT
 62
     1
  6
CONTINUOUS
 10
-0.201071
 20
3.565866
  0
VERTEX
  8
RESIDENT
 62
     1
  6
CONTINUOUS
 10
-0.461835
 20
3.609850
  0
VERTEX
  8
RESIDENT
 62
     1
  6
CONTINUOUS
 10
-0.463406
 20
3.702531
  0
SEQEND
  8
0
  0
POLYLINE
  8
RESIDENT
 62
     1
  6
CONTINUOUS
 66
     1
 40
0.003000
 41
0.003000
 70
     1
  0
VERTEX
  8
RESIDENT
 62
     1
  6
CONTINUOUS
 10
-0.048154
 20
3.065776
  0
VERTEX
  8
RESIDENT
 62
     1
  6
CONTINUOUS
 10
-0.049937
 20
2.858894
  0
VERTEX
  8
RESIDENT
 62
     1
  6
CONTINUOUS
 10
-0.249685
 20
2.857110
  0
VERTEX
  8
RESIDENT
 62
     1
  6
CONTINUOUS
 10
-0.251469
 20
2.949850
  0
VERTEX
  8
RESIDENT
 62
     1
  6
CONTINUOUS
 10
-0.156945
 20
2.951634
  0
VERTEX
  8
RESIDENT
 62
     1
  6
CONTINUOUS
 10
-0.153378
 20
3.065776
  0
SEQEND
  8
0
  0
SOLID
  8
RESIDENT
 62
     2
  6
CONTINUOUS
 10
0.272870
 20
3.632917
 11
0.274654
 21
3.527693
 12
0.465484
 22
3.634701
 13
0.465484
 23
3.525909
  0
POLYLINE
  8
RESIDENT
 62
     1
  6
CONTINUOUS
 66
     1
 40
0.003000
 41
0.003000
 70
     1
  0
VERTEX
  8
RESIDENT
 62
     1
  6
CONTINUOUS
 10
0.272870
 20
3.632917
  0
VERTEX
  8
RESIDENT
 62
     1
  6
CONTINUOUS
 10
0.274654
 20
3.527693
  0
VERTEX
  8
RESIDENT
 62
     1
  6
CONTINUOUS
 10
0.465484
 20
3.525909
  0
VERTEX
  8
RESIDENT
 62
     1
  6
CONTINUOUS
 10
0.465484
 20
3.634701
  0
SEQEND
  8
0
  0
SOLID
  8
RESIDENT
 62
     2
  6
CONTINUOUS
 10
0.127323
 20
2.372835
 11
0.312520
 21
2.234709
 12
0.199858
 22
2.443055
 13
0.378110
 23
2.351228
  0
POLYLINE
  8
RESIDENT
 62
     1
  6
CONTINUOUS
 66
     1
 40
0.003000
 41
0.003000
 70
     1
  0
VERTEX
  8
RESIDENT
 62
     1
  6
CONTINUOUS
 10
0.127323
 20
2.372835
  0
VERTEX
  8
RESIDENT
 62
     1
  6
CONTINUOUS
 10
0.312520
 20
2.234709
  0
VERTEX
  8
RESIDENT
 62
     1
  6
CONTINUOUS
 10
0.378110
 20
2.351228
  0
VERTEX
  8
RESIDENT
 62
     1
  6
CONTINUOUS
 10
0.199858
 20
2.443055
  0
SEQEND
  8
0
  0
SOLID
  8
RESIDENT
 62
     2
  6
CONTINUOUS
 10
0.467780
 20
3.119024
 11
0.467780
 21
2.982835
 12
0.692787
 22
3.117543
 13
0.689827
 23
2.978394
  0
POLYLINE
  8
RESIDENT
 62
     1
  6
CONTINUOUS
 66
     1
 40
0.003000
 41
0.003000
 70
     1
  0
VERTEX
  8
RESIDENT
 62
     1
  6
CONTINUOUS
 10
0.467780
 20
3.119024
  0
VERTEX
  8
RESIDENT
 62
     1
  6
CONTINUOUS
 10
0.467780
 20
2.982835
  0
VERTEX
  8
RESIDENT
 62
     1
  6
CONTINUOUS
 10
0.689827
 20
2.978394
  0
VERTEX
  8
RESIDENT
 62
     1
  6
CONTINUOUS
 10
0.692787
 20
3.117543
  0
SEQEND
  8
0
  0
POLYLINE
  8
RESIDENT
 62
     1
  6
CONTINUOUS
 66
     1
 40
0.003000
 41
0.003000
 70
     1
  0
VERTEX
  8
RESIDENT
 62
     1
  6
CONTINUOUS
 10
0.188000
 20
0.310866
  0
VERTEX
  8
RESIDENT
 62
     1
  6
CONTINUOUS
 10
0.190961
 20
-0.032567
  0
VERTEX
  8
RESIDENT
 62
     1
  6
CONTINUOUS
 10
0.509228
 20
-0.034047
  0
VERTEX
  8
RESIDENT
 62
     1
  6
CONTINUOUS
 10
0.509228
 20
0.116945
  0
VERTEX
  8
RESIDENT
 62
     1
  6
CONTINUOUS
 10
0.313827
 20
0.118425
  0
VERTEX
  8
RESIDENT
 62
     1
  6
CONTINUOUS
 10
0.309386
 20
0.309386
  0
SEQEND
  8
0
  0
POLYLINE
  8
RESIDENT
 62
     1
  6
CONTINUOUS
 66
     1
 40
0.003000
 41
0.003000
 70
     1
  0
VERTEX
  8
RESIDENT
 62
     1
  6
CONTINUOUS
 10
1.456630
 20
-0.460378
  0
VERTEX
  8
RESIDENT
 62
     1
  6
CONTINUOUS
 10
2.366657
 20
-0.460134
  0
VERTEX
  8
RESIDENT
 62
     1
  6
CONTINUOUS
 10
2.806370
 20
0.256193
  0
VERTEX
  8
RESIDENT
 62
     1
  6
CONTINUOUS
 10
3.015555
 20
0.131622
  0
VERTEX
  8
RESIDENT
 62
     1
  6
CONTINUOUS
 10
3.084764
 20
0.242953
  0
VERTEX
  8
RESIDENT
 62
     1
  6
CONTINUOUS
 10
3.346122
 20
0.099390
  0
VERTEX
  8
RESIDENT
 62
     1
  6
CONTINUOUS
 10
3.445512
 20
0.220866
  0
VERTEX
  8
RESIDENT
 62
     1
  6
CONTINUOUS
 10
3.371890
 20
0.279764
  0
VERTEX
  8
RESIDENT
 62
     1
  6
CONTINUOUS
 10
3.382933
 20
0.327618
  0
VERTEX
  8
RESIDENT
 62
     1
  6
CONTINUOUS
 10
3.202559
 20
0.438051
  0
VERTEX
  8
RESIDENT
 62
     1
  6
CONTINUOUS
 10
3.385630
 20
0.741614
  0
VERTEX
  8
RESIDENT
 62
     1
  6
CONTINUOUS
 10
3.508157
 20
0.631984
  0
VERTEX
  8
RESIDENT
 62
     1
  6
CONTINUOUS
 10
3.512130
 20
2.108366
  0
VERTEX
  8
RESIDENT
 62
     1
  6
CONTINUOUS
 10
3.228327
 20
2.285965
  0
VERTEX
  8
RESIDENT
 62
     1
  6
CONTINUOUS
 10
3.516425
 20
2.711591
  0
VERTEX
  8
RESIDENT
 62
     1
  6
CONTINUOUS
 10
3.516425
 20
2.753260
  0
VERTEX
  8
RESIDENT
 62
     1
  6
CONTINUOUS
 10
2.626398
 20
3.260630
  0
VERTEX
  8
RESIDENT
 62
     1
  6
CONTINUOUS
 10
2.676102
 20
2.932579
  0
VERTEX
  8
RESIDENT
 62
     1
  6
CONTINUOUS
 10
2.755630
 20
2.922638
  0
VERTEX
  8
RESIDENT
 62
     1
  6
CONTINUOUS
 10
2.618445
 20
2.640315
  0
VERTEX
  8
RESIDENT
 62
     1
  6
CONTINUOUS
 10
2.342087
 20
2.801358
  0
VERTEX
  8
RESIDENT
 62
     1
  6
CONTINUOUS
 10
2.532953
 20
3.087657
  0
VERTEX
  8
RESIDENT
 62
     1
  6
CONTINUOUS
 10
2.413661
 20
3.175138
  0
VERTEX
  8
RESIDENT
 62
     1
  6
CONTINUOUS
 10
2.334134
 20
3.037953
  0
VERTEX
  8
RESIDENT
 62
     1
  6
CONTINUOUS
 10
2.240689
 20
3.109528
  0
VERTEX
  8
RESIDENT
 62
     1
  6
CONTINUOUS
 10
2.121398
 20
2.940531
  0
VERTEX
  8
RESIDENT
 62
     1
  6
CONTINUOUS
 10
1.729311
 20
3.170657
  0
VERTEX
  8
RESIDENT
 62
     1
  6
CONTINUOUS
 10
1.296602
 20
3.126472
  0
VERTEX
  8
RESIDENT
 62
     1
  6
CONTINUOUS
 10
1.378551
 20
2.584783
  0
VERTEX
  8
RESIDENT
 62
     1
  6
CONTINUOUS
 10
1.577874
 20
2.448425
  0
VERTEX
  8
RESIDENT
 62
     1
  6
CONTINUOUS
 10
1.177965
 20
1.784630
  0
VERTEX
  8
RESIDENT
 62
     1
  6
CONTINUOUS
 10
1.031059
 20
1.871685
  0
VERTEX
  8
RESIDENT
 62
     1
  6
CONTINUOUS
 10
1.044661
 20
2.111087
  0
VERTEX
  8
RESIDENT
 62
     1
  6
CONTINUOUS
 10
0.685559
 20
2.132850
  0
VERTEX
  8
RESIDENT
 62
     1
  6
CONTINUOUS
 10
0.644752
 20
1.349354
  0
VERTEX
  8
RESIDENT
 62
     1
  6
CONTINUOUS
 10
0.169228
 20
1.339724
  0
VERTEX
  8
RESIDENT
 62
     1
  6
CONTINUOUS
 10
0.164528
 20
1.203402
  0
VERTEX
  8
RESIDENT
 62
     1
  6
CONTINUOUS
 10
0.689528
 20
1.202602
  0
VERTEX
  8
RESIDENT
 62
     1
  6
CONTINUOUS
 10
0.686008
 20
0.761894
  0
VERTEX
  8
RESIDENT
 62
     1
  6
CONTINUOUS
 10
0.743681
 20
0.746717
  0
VERTEX
  8
RESIDENT
 62
     1
  6
CONTINUOUS
 10
0.758913
 20
0.313118
  0
VERTEX
  8
RESIDENT
 62
     1
  6
CONTINUOUS
 10
0.662059
 20
0.311791
  0
VERTEX
  8
RESIDENT
 62
     1
  6
CONTINUOUS
 10
0.662598
 20
-0.003681
  0
VERTEX
  8
RESIDENT
 62
     1
  6
CONTINUOUS
 10
0.957087
 20
-0.003681
  0
VERTEX
  8
RESIDENT
 62
     1
  6
CONTINUOUS
 10
0.957087
 20
0.312894
  0
VERTEX
  8
RESIDENT
 62
     1
  6
CONTINUOUS
 10
1.457717
 20
0.312894
  0
SEQEND
  8
0
  0
POLYLINE
  8
PARK
 62
     1
  6
CONTINUOUS
 66
     1
 40
0.003000
 41
0.003000
 70
     1
  0
VERTEX
  8
PARK
 62
     1
  6
CONTINUOUS
 10
-2.290378
 20
3.172567
  0
VERTEX
  8
PARK
 62
     1
  6
CONTINUOUS
 10
-2.212375
 20
3.246198
  0
VERTEX
  8
PARK
 62
     1
  6
CONTINUOUS
 10
-2.175790
 20
3.282553
  0
VERTEX
  8
PARK
 62
     1
  6
CONTINUOUS
 10
-2.159913
 20
3.309244
  0
VERTEX
  8
PARK
 62
     1
  6
CONTINUOUS
 10
-2.157229
 20
3.344679
  0
VERTEX
  8
PARK
 62
     1
  6
CONTINUOUS
 10
-2.168810
 20
3.381494
  0
VERTEX
  8
PARK
 62
     1
  6
CONTINUOUS
 10
-2.186835
 20
3.408646
  0
VERTEX
  8
PARK
 62
     1
  6
CONTINUOUS
 10
-2.205549
 20
3.427437
  0
VERTEX
  8
PARK
 62
     1
  6
CONTINUOUS
 10
-2.235768
 20
3.436104
  0
VERTEX
  8
PARK
 62
     1
  6
CONTINUOUS
 10
-2.294520
 20
3.419000
  0
VERTEX
  8
PARK
 62
     1
  6
CONTINUOUS
 10
-2.372446
 20
3.383565
  0
VERTEX
  8
PARK
 62
     1
  6
CONTINUOUS
 10
-2.440247
 20
3.349511
  0
VERTEX
  8
PARK
 62
     1
  6
CONTINUOUS
 10
-2.485039
 20
3.319598
  0
VERTEX
  8
PARK
 62
     1
  6
CONTINUOUS
 10
-2.510120
 20
3.287922
  0
VERTEX
  8
PARK
 62
     1
  6
CONTINUOUS
 10
-2.514492
 20
3.244280
  0
VERTEX
  8
PARK
 62
     1
  6
CONTINUOUS
 10
-2.478827
 20
3.184992
  0
VERTEX
  8
PARK
 62
     1
  6
CONTINUOUS
 10
-2.430813
 20
3.135291
  0
VERTEX
  8
PARK
 62
     1
  6
CONTINUOUS
 10
-2.406730
 20
3.114583
  0
VERTEX
  8
PARK
 62
     1
  6
CONTINUOUS
 10
-2.400134
 20
3.110441
  0
VERTEX
  8
PARK
 62
     1
  6
CONTINUOUS
 10
-2.395148
 20
3.103998
  0
VERTEX
  8
PARK
 62
     1
  6
CONTINUOUS
 10
-2.365773
 20
3.111361
  0
SEQEND
  8
0
  0
POLYLINE
  8
PARK
 62
     1
  6
CONTINUOUS
 66
     1
 40
0.003000
 41
0.003000
 70
     1
  0
VERTEX
  8
PARK
 62
     1
  6
CONTINUOUS
 10
-2.130024
 20
1.805492
  0
VERTEX
  8
PARK
 62
     1
  6
CONTINUOUS
 10
-2.084196
 20
1.744500
  0
VERTEX
  8
PARK
 62
     1
  6
CONTINUOUS
 10
-2.033083
 20
1.678651
  0
VERTEX
  8
PARK
 62
     1
  6
CONTINUOUS
 10
-1.989684
 20
1.625943
  0
VERTEX
  8
PARK
 62
     1
  6
CONTINUOUS
 10
-1.966996
 20
1.604374
  0
VERTEX
  8
PARK
 62
     1
  6
CONTINUOUS
 10
-1.956500
 20
1.609791
  0
VERTEX
  8
PARK
 62
     1
  6
CONTINUOUS
 10
-1.944988
 20
1.629429
  0
VERTEX
  8
PARK
 62
     1
  6
CONTINUOUS
 10
-1.930429
 20
1.668366
  0
VERTEX
  8
PARK
 62
     1
  6
CONTINUOUS
 10
-1.919651
 20
1.711197
  0
VERTEX
  8
PARK
 62
     1
  6
CONTINUOUS
 10
-1.920385
 20
1.745902
  0
VERTEX
  8
PARK
 62
     1
  6
CONTINUOUS
 10
-1.931953
 20
1.782638
  0
VERTEX
  8
PARK
 62
     1
  6
CONTINUOUS
 10
-1.958983
 20
1.833707
  0
VERTEX
  8
PARK
 62
     1
  6
CONTINUOUS
 10
-1.994816
 20
1.889517
  0
VERTEX
  8
PARK
 62
     1
  6
CONTINUOUS
 10
-2.021846
 20
1.927382
  0
VERTEX
  8
PARK
 62
     1
  6
CONTINUOUS
 10
-2.042444
 20
1.944311
  0
VERTEX
  8
PARK
 62
     1
  6
CONTINUOUS
 10
-2.069812
 20
1.947020
  0
VERTEX
  8
PARK
 62
     1
  6
CONTINUOUS
 10
-2.102598
 20
1.927382
  0
VERTEX
  8
PARK
 62
     1
  6
CONTINUOUS
 10
-2.136795
 20
1.896458
  0
VERTEX
  8
PARK
 62
     1
  6
CONTINUOUS
 10
-2.153724
 20
1.860794
  0
SEQEND
  8
0
  0
POLYLINE
  8
PARK
 62
     1
  6
CONTINUOUS
 66
     1
 40
0.003000
 41
0.003000
 70
     1
  0
VERTEX
  8
PARK
 62
     1
  6
CONTINUOUS
 10
-2.445705
 20
1.458173
  0
VERTEX
  8
PARK
 62
     1
  6
CONTINUOUS
 10
-2.426661
 20
0.296531
  0
VERTEX
  8
PARK
 62
     1
  6
CONTINUOUS
 10
-2.130130
 20
0.285650
  0
VERTEX
  8
PARK
 62
     1
  6
CONTINUOUS
 10
-2.132850
 20
-0.010882
  0
VERTEX
  8
PARK
 62
     1
  6
CONTINUOUS
 10
-2.309681
 20
-0.024484
  0
VERTEX
  8
PARK
 62
     1
  6
CONTINUOUS
 10
-2.421220
 20
-0.092496
  0
VERTEX
  8
PARK
 62
     1
  6
CONTINUOUS
 10
-2.407618
 20
-0.492406
  0
VERTEX
  8
PARK
 62
     1
  6
CONTINUOUS
 10
-2.425142
 20
-0.492639
  0
VERTEX
  8
PARK
 62
     1
  6
CONTINUOUS
 10
-2.471804
 20
-0.493256
  0
VERTEX
  8
PARK
 62
     1
  6
CONTINUOUS
 10
-2.538743
 20
-0.494127
  0
VERTEX
  8
PARK
 62
     1
  6
CONTINUOUS
 10
-2.617094
 20
-0.495126
  0
VERTEX
  8
PARK
 62
     1
  6
CONTINUOUS
 10
-2.697997
 20
-0.496125
  0
VERTEX
  8
PARK
 62
     1
  6
CONTINUOUS
 10
-2.772586
 20
-0.496996
  0
VERTEX
  8
PARK
 62
     1
  6
CONTINUOUS
 10
-2.832001
 20
-0.497613
  0
VERTEX
  8
PARK
 62
     1
  6
CONTINUOUS
 10
-2.867378
 20
-0.497846
  0
VERTEX
  8
PARK
 62
     1
  6
CONTINUOUS
 10
-2.920525
 20
-0.508032
  0
VERTEX
  8
PARK
 62
     1
  6
CONTINUOUS
 10
-3.000050
 20
-0.532320
  0
VERTEX
  8
PARK
 62
     1
  6
CONTINUOUS
 10
-3.084015
 20
-0.561310
  0
VERTEX
  8
PARK
 62
     1
  6
CONTINUOUS
 10
-3.150481
 20
-0.585598
  0
VERTEX
  8
PARK
 62
     1
  6
CONTINUOUS
 10
-3.177512
 20
-0.595783
  0
VERTEX
  8
PARK
 62
     1
  6
CONTINUOUS
 10
-3.177512
 20
0.625709
  0
VERTEX
  8
PARK
 62
     1
  6
CONTINUOUS
 10
-3.170156
 20
0.625104
  0
VERTEX
  8
PARK
 62
     1
  6
CONTINUOUS
 10
-3.151315
 20
0.624500
  0
VERTEX
  8
PARK
 62
     1
  6
CONTINUOUS
 10
-3.125823
 20
0.625709
  0
VERTEX
  8
PARK
 62
     1
  6
CONTINUOUS
 10
-3.101636
 20
0.661075
  0
VERTEX
  8
PARK
 62
     1
  6
CONTINUOUS
 10
-3.073114
 20
0.737248
  0
VERTEX
  8
PARK
 62
     1
  6
CONTINUOUS
 10
-3.045101
 20
0.815462
  0
VERTEX
  8
PARK
 62
     1
  6
CONTINUOUS
 10
-3.022445
 20
0.856949
  0
VERTEX
  8
PARK
 62
     1
  6
CONTINUOUS
 10
-2.978212
 20
0.863901
  0
VERTEX
  8
PARK
 62
     1
  6
CONTINUOUS
 10
-2.917052
 20
0.859972
  0
VERTEX
  8
PARK
 62
     1
  6
CONTINUOUS
 10
-2.872819
 20
0.848787
  0
VERTEX
  8
PARK
 62
     1
  6
CONTINUOUS
 10
-2.857504
 20
0.806368
  0
VERTEX
  8
PARK
 62
     1
  6
CONTINUOUS
 10
-2.853675
 20
0.736140
  0
VERTEX
  8
PARK
 62
     1
  6
CONTINUOUS
 10
-2.851055
 20
0.682839
  0
VERTEX
  8
PARK
 62
     1
  6
CONTINUOUS
 10
-2.826067
 20
0.658254
  0
VERTEX
  8
PARK
 62
     1
  6
CONTINUOUS
 10
-2.785361
 20
0.643946
  0
VERTEX
  8
PARK
 62
     1
  6
CONTINUOUS
 10
-2.764000
 20
0.639311
  0
VERTEX
  8
PARK
 62
     1
  6
CONTINUOUS
 10
-2.622535
 20
0.639311
  0
VERTEX
  8
PARK
 62
     1
  6
CONTINUOUS
 10
-2.633417
 20
1.447291
  0
SEQEND
  8
0
  0
POLYLINE
  8
PARK
 62
     1
  6
CONTINUOUS
 66
     1
 40
0.003000
 41
0.003000
 70
     1
  0
VERTEX
  8
PARK
 62
     1
  6
CONTINUOUS
 10
-1.460776
 20
-1.029575
  0
VERTEX
  8
PARK
 62
     1
  6
CONTINUOUS
 10
-1.433476
 20
-1.036145
  0
VERTEX
  8
PARK
 62
     1
  6
CONTINUOUS
 10
-1.375799
 20
-1.051249
  0
VERTEX
  8
PARK
 62
     1
  6
CONTINUOUS
 10
-1.302582
 20
-1.070365
  0
VERTEX
  8
PARK
 62
     1
  6
CONTINUOUS
 10
-1.228665
 20
-1.088972
  0
VERTEX
  8
PARK
 62
     1
  6
CONTINUOUS
 10
-1.168886
 20
-1.102547
  0
VERTEX
  8
PARK
 62
     1
  6
CONTINUOUS
 10
-1.093800
 20
-1.114685
  0
VERTEX
  8
PARK
 62
     1
  6
CONTINUOUS
 10
-1.035226
 20
-1.120041
  0
VERTEX
  8
PARK
 62
     1
  6
CONTINUOUS
 10
-1.004366
 20
-1.119795
  0
VERTEX
  8
PARK
 62
     1
  6
CONTINUOUS
 10
-0.993064
 20
-1.098272
  0
VERTEX
  8
PARK
 62
     1
  6
CONTINUOUS
 10
-0.988248
 20
-1.057290
  0
VERTEX
  8
PARK
 62
     1
  6
CONTINUOUS
 10
-0.993752
 20
-1.024268
  0
VERTEX
  8
PARK
 62
     1
  6
CONTINUOUS
 10
-1.009034
 20
-1.004514
  0
VERTEX
  8
PARK
 62
     1
  6
CONTINUOUS
 10
-1.047904
 20
-0.976799
  0
VERTEX
  8
PARK
 62
     1
  6
CONTINUOUS
 10
-1.135717
 20
-0.928740
  0
VERTEX
  8
PARK
 62
     1
  6
CONTINUOUS
 10
-1.197702
 20
-0.896918
  0
VERTEX
  8
PARK
 62
     1
  6
CONTINUOUS
 10
-1.220630
 20
-0.883132
  0
VERTEX
  8
PARK
 62
     1
  6
CONTINUOUS
 10
-1.231617
 20
-0.869595
  0
VERTEX
  8
PARK
 62
     1
  6
CONTINUOUS
 10
-1.257780
 20
-0.838520
  0
VERTEX
  8
PARK
 62
     1
  6
CONTINUOUS
 10
-1.318320
 20
-0.803090
  0
VERTEX
  8
PARK
 62
     1
  6
CONTINUOUS
 10
-1.373258
 20
-0.800977
  0
VERTEX
  8
PARK
 62
     1
  6
CONTINUOUS
 10
-1.403724
 20
-0.805350
  0
VERTEX
  8
PARK
 62
     1
  6
CONTINUOUS
 10
-1.417676
 20
-0.839826
  0
VERTEX
  8
PARK
 62
     1
  6
CONTINUOUS
 10
-1.436728
 20
-0.916965
  0
VERTEX
  8
PARK
 62
     1
  6
CONTINUOUS
 10
-1.453541
 20
-0.994353
  0
SEQEND
  8
0
  0
SOLID
  8
PARK
 62
     3
  6
CONTINUOUS
 10
0.294587
 20
-2.195748
 11
0.297461
 21
-2.539193
 12
0.530256
 22
-2.338012
 13
0.517323
 23
-2.539193
  0
POLYLINE
  8
PARK
 62
     1
  6
CONTINUOUS
 66
     1
 40
0.003000
 41
0.003000
 70
     1
  0
VERTEX
  8
PARK
 62
     1
  6
CONTINUOUS
 10
0.294587
 20
-2.195748
  0
VERTEX
  8
PARK
 62
     1
  6
CONTINUOUS
 10
0.297461
 20
-2.539193
  0
VERTEX
  8
PARK
 62
     1
  6
CONTINUOUS
 10
0.517323
 20
-2.539193
  0
VERTEX
  8
PARK
 62
     1
  6
CONTINUOUS
 10
0.530256
 20
-2.338012
  0
SEQEND
  8
0
  0
SOLID
  8
PARK
 62
     3
  6
CONTINUOUS
 10
-1.648606
 20
1.841760
 11
-1.648606
 21
1.692134
 12
-0.500567
 22
1.833598
 13
-0.500567
 23
1.683972
  0
POLYLINE
  8
PARK
 62
     1
  6
CONTINUOUS
 66
     1
 40
0.003000
 41
0.003000
 70
     1
  0
VERTEX
  8
PARK
 62
     1
  6
CONTINUOUS
 10
-1.648606
 20
1.841760
  0
VERTEX
  8
PARK
 62
     1
  6
CONTINUOUS
 10
-1.648606
 20
1.692134
  0
VERTEX
  8
PARK
 62
     1
  6
CONTINUOUS
 10
-0.500567
 20
1.683972
  0
VERTEX
  8
PARK
 62
     1
  6
CONTINUOUS
 10
-0.500567
 20
1.833598
  0
SEQEND
  8
0
  0
SOLID
  8
PARK
 62
     3
  6
CONTINUOUS
 10
-1.004035
 20
0.312146
 11
-1.004035
 21
-0.017894
 12
-0.713760
 22
0.312146
 13
-0.703819
 23
-0.015906
  0
POLYLINE
  8
PARK
 62
     1
  6
CONTINUOUS
 66
     1
 40
0.003000
 41
0.003000
 70
     1
  0
VERTEX
  8
PARK
 62
     1
  6
CONTINUOUS
 10
-1.004035
 20
0.312146
  0
VERTEX
  8
PARK
 62
     1
  6
CONTINUOUS
 10
-1.004035
 20
-0.017894
  0
VERTEX
  8
PARK
 62
     1
  6
CONTINUOUS
 10
-0.703819
 20
-0.015906
  0
VERTEX
  8
PARK
 62
     1
  6
CONTINUOUS
 10
-0.713760
 20
0.312146
  0
SEQEND
  8
0
  0
SOLID
  8
PARK
 62
     3
  6
CONTINUOUS
 10
-0.564646
 20
1.204843
 11
-0.560669
 21
0.703819
 12
0.431437
 22
1.206831
 13
0.437402
 23
0.701831
  0
POLYLINE
  8
PARK
 62
     1
  6
CONTINUOUS
 66
     1
 40
0.003000
 41
0.003000
 70
     1
  0
VERTEX
  8
PARK
 62
     1
  6
CONTINUOUS
 10
-0.564646
 20
1.204843
  0
VERTEX
  8
PARK
 62
     1
  6
CONTINUOUS
 10
-0.560669
 20
0.703819
  0
VERTEX
  8
PARK
 62
     1
  6
CONTINUOUS
 10
0.437402
 20
0.701831
  0
VERTEX
  8
PARK
 62
     1
  6
CONTINUOUS
 10
0.431437
 20
1.206831
  0
SEQEND
  8
0
  0
SOLID
  8
PARK
 62
     3
  6
CONTINUOUS
 10
0.164528
 20
2.239925
 11
0.169228
 21
1.849760
 12
-0.047008
 22
2.237575
 13
-0.047008
 23
1.847409
  0
POLYLINE
  8
PARK
 62
     1
  6
CONTINUOUS
 66
     1
 40
0.003000
 41
0.003000
 70
     1
  0
VERTEX
  8
PARK
 62
     1
  6
CONTINUOUS
 10
0.164528
 20
2.239925
  0
VERTEX
  8
PARK
 62
     1
  6
CONTINUOUS
 10
0.169228
 20
1.849760
  0
VERTEX
  8
PARK
 62
     1
  6
CONTINUOUS
 10
-0.047008
 20
1.847409
  0
VERTEX
  8
PARK
 62
     1
  6
CONTINUOUS
 10
-0.047008
 20
2.237575
  0
SEQEND
  8
0
  0
POLYLINE
  8
PARK
 62
     1
  6
CONTINUOUS
 66
     1
 40
0.003000
 41
0.003000
 70
     1
  0
VERTEX
  8
PARK
 62
     1
  6
CONTINUOUS
 10
0.783496
 20
-0.329177
  0
VERTEX
  8
PARK
 62
     1
  6
CONTINUOUS
 10
1.134437
 20
-0.334618
  0
VERTEX
  8
PARK
 62
     1
  6
CONTINUOUS
 10
1.142598
 20
-0.454319
  0
VERTEX
  8
PARK
 62
     1
  6
CONTINUOUS
 10
1.294945
 20
-0.459760
  0
VERTEX
  8
PARK
 62
     1
  6
CONTINUOUS
 10
1.294945
 20
-0.881433
  0
VERTEX
  8
PARK
 62
     1
  6
CONTINUOUS
 10
1.161642
 20
-0.889594
  0
VERTEX
  8
PARK
 62
     1
  6
CONTINUOUS
 10
1.153480
 20
-0.718205
  0
VERTEX
  8
PARK
 62
     1
  6
CONTINUOUS
 10
0.979370
 20
-0.715484
  0
VERTEX
  8
PARK
 62
     1
  6
CONTINUOUS
 10
0.973929
 20
-0.544094
  0
VERTEX
  8
PARK
 62
     1
  6
CONTINUOUS
 10
0.791657
 20
-0.538654
  0
SEQEND
  8
0
  0
POLYLINE
  8
PARK
 62
     1
  6
CONTINUOUS
 66
     1
 40
0.003000
 41
0.003000
 70
     1
  0
VERTEX
  8
PARK
 62
     1
  6
CONTINUOUS
 10
0.671957
 20
2.094764
  0
VERTEX
  8
PARK
 62
     1
  6
CONTINUOUS
 10
0.648025
 20
2.064371
  0
VERTEX
  8
PARK
 62
     1
  6
CONTINUOUS
 10
0.594763
 20
1.994446
  0
VERTEX
  8
PARK
 62
     1
  6
CONTINUOUS
 10
0.539971
 20
1.916870
  0
VERTEX
  8
PARK
 62
     1
  6
CONTINUOUS
 10
0.511449
 20
1.863524
  0
VERTEX
  8
PARK
 62
     1
  6
CONTINUOUS
 10
0.513552
 20
1.830802
  0
VERTEX
  8
PARK
 62
     1
  6
CONTINUOUS
 10
0.526462
 20
1.779491
  0
VERTEX
  8
PARK
 62
     1
  6
CONTINUOUS
 10
0.547835
 20
1.718658
  0
VERTEX
  8
PARK
 62
     1
  6
CONTINUOUS
 10
0.575330
 20
1.657372
  0
VERTEX
  8
PARK
 62
     1
  6
CONTINUOUS
 10
0.606602
 20
1.604701
  0
VERTEX
  8
PARK
 62
     1
  6
CONTINUOUS
 10
0.639311
 20
1.569713
  0
VERTEX
  8
PARK
 62
     1
  6
CONTINUOUS
 10
0.835185
 20
1.564272
  0
VERTEX
  8
PARK
 62
     1
  6
CONTINUOUS
 10
0.821583
 20
1.814555
  0
VERTEX
  8
PARK
 62
     1
  6
CONTINUOUS
 10
0.812212
 20
1.813044
  0
VERTEX
  8
PARK
 62
     1
  6
CONTINUOUS
 10
0.790146
 20
1.816973
  0
VERTEX
  8
PARK
 62
     1
  6
CONTINUOUS
 10
0.764453
 20
1.839039
  0
VERTEX
  8
PARK
 62
     1
  6
CONTINUOUS
 10
0.768685
 20
1.875816
  0
VERTEX
  8
PARK
 62
     1
  6
CONTINUOUS
 10
0.803748
 20
1.910175
  0
VERTEX
  8
PARK
 62
     1
  6
CONTINUOUS
 10
0.829744
 20
1.934256
  0
VERTEX
  8
PARK
 62
     1
  6
CONTINUOUS
 10
0.843246
 20
1.952090
  0
VERTEX
  8
PARK
 62
     1
  6
CONTINUOUS
 10
0.859770
 20
1.968111
  0
VERTEX
  8
PARK
 62
     1
  6
CONTINUOUS
 10
0.867831
 20
1.975063
  0
SEQEND
  8
0
  0
POLYLINE
  8
PARK
 62
     1
  6
CONTINUOUS
 66
     1
 40
0.003000
 41
0.003000
 70
     1
  0
VERTEX
  8
PARK
 62
     1
  6
CONTINUOUS
 10
0.795213
 20
2.710764
  0
VERTEX
  8
PARK
 62
     1
  6
CONTINUOUS
 10
1.248732
 20
2.524386
  0
VERTEX
  8
PARK
 62
     1
  6
CONTINUOUS
 10
1.459961
 20
2.244819
  0
VERTEX
  8
PARK
 62
     1
  6
CONTINUOUS
 10
1.184535
 20
1.783016
  0
VERTEX
  8
PARK
 62
     1
  6
CONTINUOUS
 10
1.018866
 20
1.880346
  0
VERTEX
  8
PARK
 62
     1
  6
CONTINUOUS
 10
1.045787
 20
2.106071
  0
VERTEX
  8
PARK
 62
     1
  6
CONTINUOUS
 10
0.805567
 20
2.097787
  0
SEQEND
  8
0
  0
POLYLINE
  8
PARK
 62
     1
  6
CONTINUOUS
 66
     1
 40
0.003000
 41
0.003000
 70
     1
  0
VERTEX
  8
PARK
 62
     1
  6
CONTINUOUS
 10
2.072441
 20
0.467780
  0
VERTEX
  8
PARK
 62
     1
  6
CONTINUOUS
 10
2.111532
 20
0.426660
  0
VERTEX
  8
PARK
 62
     1
  6
CONTINUOUS
 10
2.147334
 20
0.374684
  0
VERTEX
  8
PARK
 62
     1
  6
CONTINUOUS
 10
2.159780
 20
0.307906
  0
VERTEX
  8
PARK
 62
     1
  6
CONTINUOUS
 10
2.150295
 20
0.243320
  0
VERTEX
  8
PARK
 62
     1
  6
CONTINUOUS
 10
2.131270
 20
0.194853
  0
VERTEX
  8
PARK
 62
     1
  6
CONTINUOUS
 10
2.099087
 20
0.153953
  0
VERTEX
  8
PARK
 62
     1
  6
CONTINUOUS
 10
2.042177
 20
0.131529
  0
VERTEX
  8
PARK
 62
     1
  6
CONTINUOUS
 10
1.974411
 20
0.133448
  0
VERTEX
  8
PARK
 62
     1
  6
CONTINUOUS
 10
1.930331
 20
0.143591
  0
VERTEX
  8
PARK
 62
     1
  6
CONTINUOUS
 10
1.895077
 20
0.172649
  0
VERTEX
  8
PARK
 62
     1
  6
CONTINUOUS
 10
1.851600
 20
0.228023
  0
VERTEX
  8
PARK
 62
     1
  6
CONTINUOUS
 10
1.831150
 20
0.288661
  0
VERTEX
  8
PARK
 62
     1
  6
CONTINUOUS
 10
1.845076
 20
0.348532
  0
VERTEX
  8
PARK
 62
     1
  6
CONTINUOUS
 10
1.874463
 20
0.404455
  0
VERTEX
  8
PARK
 62
     1
  6
CONTINUOUS
 10
1.905165
 20
0.439654
  0
VERTEX
  8
PARK
 62
     1
  6
CONTINUOUS
 10
1.934004
 20
0.454786
  0
VERTEX
  8
PARK
 62
     1
  6
CONTINUOUS
 10
1.964159
 20
0.463010
  0
VERTEX
  8
PARK
 62
     1
  6
CONTINUOUS
 10
1.991024
 20
0.466299
  0
VERTEX
  8
PARK
 62
     1
  6
CONTINUOUS
 10
2.022659
 20
0.467341
  0
VERTEX
  8
PARK
 62
     1
  6
CONTINUOUS
 10
2.056596
 20
0.467725
  0
SEQEND
  8
0
  0
SOLID
  8
PARK
 62
     3
  6
CONTINUOUS
 10
2.947331
 20
1.048583
 11
3.202142
 21
0.871106
 12
2.785846
 22
0.787252
 13
3.053638
 23
0.620358
  0
POLYLINE
  8
PARK
 62
     1
  6
CONTINUOUS
 66
     1
 40
0.003000
 41
0.003000
 70
     1
  0
VERTEX
  8
PARK
 62
     1
  6
CONTINUOUS
 10
2.947331
 20
1.048583
  0
VERTEX
  8
PARK
 62
     1
  6
CONTINUOUS
 10
3.202142
 20
0.871106
  0
VERTEX
  8
PARK
 62
     1
  6
CONTINUOUS
 10
3.053638
 20
0.620358
  0
VERTEX
  8
PARK
 62
     1
  6
CONTINUOUS
 10
2.785846
 20
0.787252
  0
SEQEND
  8
0
  0
POLYLINE
  8
PARK
 62
     1
  6
CONTINUOUS
 66
     1
 40
0.003000
 41
0.003000
 70
     1
  0
VERTEX
  8
PARK
 62
     1
  6
CONTINUOUS
 10
3.306854
 20
-0.069689
  0
VERTEX
  8
PARK
 62
     1
  6
CONTINUOUS
 10
3.336079
 20
-0.370925
  0
VERTEX
  8
PARK
 62
     1
  6
CONTINUOUS
 10
3.515921
 20
-0.469839
  0
VERTEX
  8
PARK
 62
     1
  6
CONTINUOUS
 10
3.513673
 20
-2.038965
  0
VERTEX
  8
PARK
 62
     1
  6
CONTINUOUS
 10
3.295614
 20
-2.245783
  0
VERTEX
  8
PARK
 62
     1
  6
CONTINUOUS
 10
3.216933
 20
-1.800673
  0
VERTEX
  8
PARK
 62
     1
  6
CONTINUOUS
 10
3.193537
 20
-1.766703
  0
VERTEX
  8
PARK
 62
     1
  6
CONTINUOUS
 10
3.149659
 20
-1.699762
  0
VERTEX
  8
PARK
 62
     1
  6
CONTINUOUS
 10
3.124764
 20
-1.652303
  0
VERTEX
  8
PARK
 62
     1
  6
CONTINUOUS
 10
3.124167
 20
-1.606535
  0
VERTEX
  8
PARK
 62
     1
  6
CONTINUOUS
 10
3.125045
 20
-1.525570
  0
VERTEX
  8
PARK
 62
     1
  6
CONTINUOUS
 10
3.126344
 20
-1.448400
  0
VERTEX
  8
PARK
 62
     1
  6
CONTINUOUS
 10
3.127012
 20
-1.414012
  0
VERTEX
  8
PARK
 62
     1
  6
CONTINUOUS
 10
3.189957
 20
-1.285874
  0
VERTEX
  8
PARK
 62
     1
  6
CONTINUOUS
 10
2.385161
 20
-0.478831
  0
VERTEX
  8
PARK
 62
     1
  6
CONTINUOUS
 10
2.225551
 20
-0.076433
  0
VERTEX
  8
PARK
 62
     1
  6
CONTINUOUS
 10
2.223303
 20
0.146122
  0
VERTEX
  8
PARK
 62
     1
  6
CONTINUOUS
 10
2.587484
 20
-0.092169
  0
VERTEX
  8
PARK
 62
     1
  6
CONTINUOUS
 10
2.807791
 20
0.251780
  0
VERTEX
  8
PARK
 62
     1
  6
CONTINUOUS
 10
3.014610
 20
0.139378
  0
VERTEX
  8
PARK
 62
     1
  6
CONTINUOUS
 10
3.007866
 20
0.112402
  0
SEQEND
  8
0
  0
POLYLINE
  8
PARK
 62
     1
  6
CONTINUOUS
 66
     1
 40
0.003000
 41
0.003000
 70
     1
  0
VERTEX
  8
PARK
 62
     1
  6
CONTINUOUS
 10
1.470709
 20
0.317008
  0
VERTEX
  8
PARK
 62
     1
  6
CONTINUOUS
 10
1.790315
 20
0.311811
  0
VERTEX
  8
PARK
 62
     1
  6
CONTINUOUS
 10
1.791324
 20
0.319264
  0
VERTEX
  8
PARK
 62
     1
  6
CONTINUOUS
 10
1.795690
 20
0.339100
  0
VERTEX
  8
PARK
 62
     1
  6
CONTINUOUS
 10
1.805424
 20
0.367533
  0
VERTEX
  8
PARK
 62
     1
  6
CONTINUOUS
 10
1.822537
 20
0.400778
  0
VERTEX
  8
PARK
 62
     1
  6
CONTINUOUS
 10
1.849038
 20
0.435049
  0
VERTEX
  8
PARK
 62
     1
  6
CONTINUOUS
 10
1.886938
 20
0.466562
  0
VERTEX
  8
PARK
 62
     1
  6
CONTINUOUS
 10
1.938247
 20
0.491530
  0
VERTEX
  8
PARK
 62
     1
  6
CONTINUOUS
 10
2.004976
 20
0.506169
  0
VERTEX
  8
PARK
 62
     1
  6
CONTINUOUS
 10
2.089134
 20
0.506693
  0
VERTEX
  8
PARK
 62
     1
  6
CONTINUOUS
 10
2.169685
 20
0.636614
  0
VERTEX
  8
PARK
 62
     1
  6
CONTINUOUS
 10
1.769528
 20
0.875669
  0
SEQEND
  8
0
  0
POLYLINE
  8
RIVER
 62
     1
  6
CONTINUOUS
 66
     1
 40
0.003000
 41
0.003000
 70
     1
  0
VERTEX
  8
RIVER
 62
     1
  6
CONTINUOUS
 10
-1.533606
 20
3.956882
  0
VERTEX
  8
RIVER
 62
     1
  6
CONTINUOUS
 10
-1.533213
 20
3.940390
  0
VERTEX
  8
RIVER
 62
     1
  6
CONTINUOUS
 10
-1.537122
 20
3.890453
  0
VERTEX
  8
RIVER
 62
     1
  6
CONTINUOUS
 10
-1.552966
 20
3.806375
  0
VERTEX
  8
RIVER
 62
     1
  6
CONTINUOUS
 10
-1.588378
 20
3.687465
  0
VERTEX
  8
RIVER
 62
     1
  6
CONTINUOUS
 10
-1.620643
 20
3.602065
  0
VERTEX
  8
RIVER
 62
     1
  6
CONTINUOUS
 10
-1.652580
 20
3.528303
  0
VERTEX
  8
RIVER
 62
     1
  6
CONTINUOUS
 10
-1.682378
 20
3.466713
  0
VERTEX
  8
RIVER
 62
     1
  6
CONTINUOUS
 10
-1.708229
 20
3.417828
  0
VERTEX
  8
RIVER
 62
     1
  6
CONTINUOUS
 10
-1.728323
 20
3.382184
  0
VERTEX
  8
RIVER
 62
     1
  6
CONTINUOUS
 10
-1.740850
 20
3.360315
  0
VERTEX
  8
RIVER
 62
     1
  6
CONTINUOUS
 10
-1.755084
 20
3.336581
  0
VERTEX
  8
RIVER
 62
     1
  6
CONTINUOUS
 10
-1.782554
 20
3.292290
  0
VERTEX
  8
RIVER
 62
     1
  6
CONTINUOUS
 10
-1.818732
 20
3.234503
  0
VERTEX
  8
RIVER
 62
     1
  6
CONTINUOUS
 10
-1.859091
 20
3.170280
  0
VERTEX
  8
RIVER
 62
     1
  6
CONTINUOUS
 10
-1.899102
 20
3.106681
  0
VERTEX
  8
RIVER
 62
     1
  6
CONTINUOUS
 10
-1.934240
 20
3.050767
  0
VERTEX
  8
RIVER
 62
     1
  6
CONTINUOUS
 10
-1.959975
 20
3.009599
  0
VERTEX
  8
RIVER
 62
     1
  6
CONTINUOUS
 10
-1.971780
 20
2.990236
  0
VERTEX
  8
RIVER
 62
     1
  6
CONTINUOUS
 10
-1.989557
 20
2.962213
  0
VERTEX
  8
RIVER
 62
     1
  6
CONTINUOUS
 10
-2.027154
 20
2.904707
  0
VERTEX
  8
RIVER
 62
     1
  6
CONTINUOUS
 10
-2.074291
 20
2.833138
  0
VERTEX
  8
RIVER
 62
     1
  6
CONTINUOUS
 10
-2.120688
 20
2.762926
  0
VERTEX
  8
RIVER
 62
     1
  6
CONTINUOUS
 10
-2.156065
 20
2.709490
  0
VERTEX
  8
RIVER
 62
     1
  6
CONTINUOUS
 10
-2.170142
 20
2.688252
  0
VERTEX
  8
RIVER
 62
     1
  6
CONTINUOUS
 10
-2.180149
 20
2.674053
  0
VERTEX
  8
RIVER
 62
     1
  6
CONTINUOUS
 10
-2.204011
 20
2.634345
  0
VERTEX
  8
RIVER
 62
     1
  6
CONTINUOUS
 10
-2.232493
 20
2.573462
  0
VERTEX
  8
RIVER
 62
     1
  6
CONTINUOUS
 10
-2.256355
 20
2.495740
  0
VERTEX
  8
RIVER
 62
     1
  6
CONTINUOUS
 10
-2.266362
 20
2.405512
  0
VERTEX
  8
RIVER
 62
     1
  6
CONTINUOUS
 10
-2.270303
 20
2.334685
  0
VERTEX
  8
RIVER
 62
     1
  6
CONTINUOUS
 10
-2.280483
 20
2.261062
  0
VERTEX
  8
RIVER
 62
     1
  6
CONTINUOUS
 10
-2.294445
 20
2.189278
  0
VERTEX
  8
RIVER
 62
     1
  6
CONTINUOUS
 10
-2.309727
 20
2.123967
  0
VERTEX
  8
RIVER
 62
     1
  6
CONTINUOUS
 10
-2.323870
 20
2.069765
  0
VERTEX
  8
RIVER
 62
     1
  6
CONTINUOUS
 10
-2.334414
 20
2.031307
  0
VERTEX
  8
RIVER
 62
     1
  6
CONTINUOUS
 10
-2.338898
 20
2.013228
  0
VERTEX
  8
RIVER
 62
     1
  6
CONTINUOUS
 10
-2.345374
 20
1.991695
  0
VERTEX
  8
RIVER
 62
     1
  6
CONTINUOUS
 10
-2.362089
 20
1.946559
  0
VERTEX
  8
RIVER
 62
     1
  6
CONTINUOUS
 10
-2.387193
 20
1.884811
  0
VERTEX
  8
RIVER
 62
     1
  6
CONTINUOUS
 10
-2.418835
 20
1.813441
  0
VERTEX
  8
RIVER
 62
     1
  6
CONTINUOUS
 10
-2.455164
 20
1.739439
  0
VERTEX
  8
RIVER
 62
     1
  6
CONTINUOUS
 10
-2.494331
 20
1.669795
  0
VERTEX
  8
RIVER
 62
     1
  6
CONTINUOUS
 10
-2.545864
 20
1.579681
  0
VERTEX
  8
RIVER
 62
     1
  6
CONTINUOUS
 10
-2.581299
 20
1.508441
  0
VERTEX
  8
RIVER
 62
     1
  6
CONTINUOUS
 10
-2.601746
 20
1.461626
  0
VERTEX
  8
RIVER
 62
     1
  6
CONTINUOUS
 10
-2.608315
 20
1.444787
  0
VERTEX
  8
RIVER
 62
     1
  6
CONTINUOUS
 10
-2.614072
 20
1.432835
  0
VERTEX
  8
RIVER
 62
     1
  6
CONTINUOUS
 10
-2.624763
 20
1.378776
  0
VERTEX
  8
RIVER
 62
     1
  6
CONTINUOUS
 10
-2.630520
 20
1.255307
  0
VERTEX
  8
RIVER
 62
     1
  6
CONTINUOUS
 10
-2.630162
 20
1.197327
  0
VERTEX
  8
RIVER
 62
     1
  6
CONTINUOUS
 10
-2.629196
 20
1.136106
  0
VERTEX
  8
RIVER
 62
     1
  6
CONTINUOUS
 10
-2.627778
 20
1.073448
  0
VERTEX
  8
RIVER
 62
     1
  6
CONTINUOUS
 10
-2.626069
 20
1.011155
  0
VERTEX
  8
RIVER
 62
     1
  6
CONTINUOUS
 10
-2.624225
 20
0.951030
  0
VERTEX
  8
RIVER
 62
     1
  6
CONTINUOUS
 10
-2.622405
 20
0.894878
  0
VERTEX
  8
RIVER
 62
     1
  6
CONTINUOUS
 10
-2.620769
 20
0.844500
  0
VERTEX
  8
RIVER
 62
     1
  6
CONTINUOUS
 10
-2.619473
 20
0.801701
  0
VERTEX
  8
RIVER
 62
     1
  6
CONTINUOUS
 10
-2.618677
 20
0.768283
  0
VERTEX
  8
RIVER
 62
     1
  6
CONTINUOUS
 10
-2.617391
 20
0.719985
  0
VERTEX
  8
RIVER
 62
     1
  6
CONTINUOUS
 10
-2.615095
 20
0.653613
  0
VERTEX
  8
RIVER
 62
     1
  6
CONTINUOUS
 10
-2.612229
 20
0.578462
  0
VERTEX
  8
RIVER
 62
     1
  6
CONTINUOUS
 10
-2.609234
 20
0.503829
  0
VERTEX
  8
RIVER
 62
     1
  6
CONTINUOUS
 10
-2.606550
 20
0.439010
  0
VERTEX
  8
RIVER
 62
     1
  6
CONTINUOUS
 10
-2.604616
 20
0.393302
  0
VERTEX
  8
RIVER
 62
     1
  6
CONTINUOUS
 10
-2.603874
 20
0.376000
  0
VERTEX
  8
RIVER
 62
     1
  6
CONTINUOUS
 10
-2.603554
 20
0.364093
  0
VERTEX
  8
RIVER
 62
     1
  6
CONTINUOUS
 10
-2.602675
 20
0.331077
  0
VERTEX
  8
RIVER
 62
     1
  6
CONTINUOUS
 10
-2.601353
 20
0.281005
  0
VERTEX
  8
RIVER
 62
     1
  6
CONTINUOUS
 10
-2.599707
 20
0.217935
  0
VERTEX
  8
RIVER
 62
     1
  6
CONTINUOUS
 10
-2.597856
 20
0.145922
  0
VERTEX
  8
RIVER
 62
     1
  6
CONTINUOUS
 10
-2.595917
 20
0.069020
  0
VERTEX
  8
RIVER
 62
     1
  6
CONTINUOUS
 10
-2.594010
 20
-0.008715
  0
VERTEX
  8
RIVER
 62
     1
  6
CONTINUOUS
 10
-2.592251
 20
-0.083227
  0
VERTEX
  8
RIVER
 62
     1
  6
CONTINUOUS
 10
-2.590759
 20
-0.150460
  0
VERTEX
  8
RIVER
 62
     1
  6
CONTINUOUS
 10
-2.589653
 20
-0.206360
  0
VERTEX
  8
RIVER
 62
     1
  6
CONTINUOUS
 10
-2.589051
 20
-0.246871
  0
VERTEX
  8
RIVER
 62
     1
  6
CONTINUOUS
 10
-2.589071
 20
-0.267937
  0
VERTEX
  8
RIVER
 62
     1
  6
CONTINUOUS
 10
-2.588329
 20
-0.297552
  0
VERTEX
  8
RIVER
 62
     1
  6
CONTINUOUS
 10
-2.585126
 20
-0.347339
  0
VERTEX
  8
RIVER
 62
     1
  6
CONTINUOUS
 10
-2.579904
 20
-0.410099
  0
VERTEX
  8
RIVER
 62
     1
  6
CONTINUOUS
 10
-2.573102
 20
-0.478634
  0
VERTEX
  8
RIVER
 62
     1
  6
CONTINUOUS
 10
-2.565161
 20
-0.545744
  0
VERTEX
  8
RIVER
 62
     1
  6
CONTINUOUS
 10
-2.556521
 20
-0.604232
  0
VERTEX
  8
RIVER
 62
     1
  6
CONTINUOUS
 10
-2.547622
 20
-0.646898
  0
VERTEX
  8
RIVER
 62
     1
  6
CONTINUOUS
 10
-2.541386
 20
-0.676904
  0
VERTEX
  8
RIVER
 62
     1
  6
CONTINUOUS
 10
-2.536770
 20
-0.715780
  0
VERTEX
  8
RIVER
 62
     1
  6
CONTINUOUS
 10
-2.534190
 20
-0.762307
  0
VERTEX
  8
RIVER
 62
     1
  6
CONTINUOUS
 10
-2.534058
 20
-0.815268
  0
VERTEX
  8
RIVER
 62
     1
  6
CONTINUOUS
 10
-2.536789
 20
-0.873443
  0
VERTEX
  8
RIVER
 62
     1
  6
CONTINUOUS
 10
-2.542797
 20
-0.935614
  0
VERTEX
  8
RIVER
 62
     1
  6
CONTINUOUS
 10
-2.552498
 20
-1.000563
  0
VERTEX
  8
RIVER
 62
     1
  6
CONTINUOUS
 10
-2.566304
 20
-1.067072
  0
VERTEX
  8
RIVER
 62
     1
  6
CONTINUOUS
 10
-2.584630
 20
-1.133921
  0
VERTEX
  8
RIVER
 62
     1
  6
CONTINUOUS
 10
-2.617588
 20
-1.243761
  0
VERTEX
  8
RIVER
 62
     1
  6
CONTINUOUS
 10
-2.642232
 20
-1.332283
  0
VERTEX
  8
RIVER
 62
     1
  6
CONTINUOUS
 10
-2.659131
 20
-1.397713
  0
VERTEX
  8
RIVER
 62
     1
  6
CONTINUOUS
 10
-2.668854
 20
-1.438274
  0
VERTEX
  8
RIVER
 62
     1
  6
CONTINUOUS
 10
-2.671969
 20
-1.452189
  0
VERTEX
  8
RIVER
 62
     1
  6
CONTINUOUS
 10
-2.675702
 20
-1.462422
  0
VERTEX
  8
RIVER
 62
     1
  6
CONTINUOUS
 10
-2.685158
 20
-1.491635
  0
VERTEX
  8
RIVER
 62
     1
  6
CONTINUOUS
 10
-2.697721
 20
-1.537603
  0
VERTEX
  8
RIVER
 62
     1
  6
CONTINUOUS
 10
-2.710776
 20
-1.598097
  0
VERTEX
  8
RIVER
 62
     1
  6
CONTINUOUS
 10
-2.721708
 20
-1.670891
  0
VERTEX
  8
RIVER
 62
     1
  6
CONTINUOUS
 10
-2.727901
 20
-1.753759
  0
VERTEX
  8
RIVER
 62
     1
  6
CONTINUOUS
 10
-2.726740
 20
-1.844472
  0
VERTEX
  8
RIVER
 62
     1
  6
CONTINUOUS
 10
-2.723800
 20
-1.916151
  0
VERTEX
  8
RIVER
 62
     1
  6
CONTINUOUS
 10
-2.723723
 20
-1.984771
  0
VERTEX
  8
RIVER
 62
     1
  6
CONTINUOUS
 10
-2.726302
 20
-2.049798
  0
VERTEX
  8
RIVER
 62
     1
  6
CONTINUOUS
 10
-2.731329
 20
-2.110694
  0
VERTEX
  8
RIVER
 62
     1
  6
CONTINUOUS
 10
-2.738599
 20
-2.166923
  0
VERTEX
  8
RIVER
 62
     1
  6
CONTINUOUS
 10
-2.747903
 20
-2.217950
  0
VERTEX
  8
RIVER
 62
     1
  6
CONTINUOUS
 10
-2.759035
 20
-2.263239
  0
VERTEX
  8
RIVER
 62
     1
  6
CONTINUOUS
 10
-2.771787
 20
-2.302253
  0
VERTEX
  8
RIVER
 62
     1
  6
CONTINUOUS
 10
-2.785953
 20
-2.334457
  0
VERTEX
  8
RIVER
 62
     1
  6
CONTINUOUS
 10
-2.801058
 20
-2.362371
  0
VERTEX
  8
RIVER
 62
     1
  6
CONTINUOUS
 10
-2.818199
 20
-2.389129
  0
VERTEX
  8
RIVER
 62
     1
  6
CONTINUOUS
 10
-2.839518
 20
-2.415106
  0
VERTEX
  8
RIVER
 62
     1
  6
CONTINUOUS
 10
-2.867161
 20
-2.440682
  0
VERTEX
  8
RIVER
 62
     1
  6
CONTINUOUS
 10
-2.903271
 20
-2.466233
  0
VERTEX
  8
RIVER
 62
     1
  6
CONTINUOUS
 10
-2.949994
 20
-2.492138
  0
VERTEX
  8
RIVER
 62
     1
  6
CONTINUOUS
 10
-3.009472
 20
-2.518773
  0
VERTEX
  8
RIVER
 62
     1
  6
CONTINUOUS
 10
-3.083851
 20
-2.546517
  0
VERTEX
  8
RIVER
 62
     1
  6
CONTINUOUS
 10
-3.175276
 20
-2.575748
  0
VERTEX
  8
RIVER
 62
     1
  6
CONTINUOUS
 10
-3.175276
 20
-2.575748
  0
VERTEX
  8
RIVER
 62
     1
  6
CONTINUOUS
 10
-3.178236
 20
-2.119811
  0
VERTEX
  8
RIVER
 62
     1
  6
CONTINUOUS
 10
-3.021323
 20
-1.908126
  0
VERTEX
  8
RIVER
 62
     1
  6
CONTINUOUS
 10
-3.011837
 20
-1.892766
  0
VERTEX
  8
RIVER
 62
     1
  6
CONTINUOUS
 10
-2.988780
 20
-1.850619
  0
VERTEX
  8
RIVER
 62
     1
  6
CONTINUOUS
 10
-2.960251
 20
-1.787581
  0
VERTEX
  8
RIVER
 62
     1
  6
CONTINUOUS
 10
-2.934351
 20
-1.709551
  0
VERTEX
  8
RIVER
 62
     1
  6
CONTINUOUS
 10
-2.919181
 20
-1.622425
  0
VERTEX
  8
RIVER
 62
     1
  6
CONTINUOUS
 10
-2.913404
 20
-1.568454
  0
VERTEX
  8
RIVER
 62
     1
  6
CONTINUOUS
 10
-2.904544
 20
-1.507878
  0
VERTEX
  8
RIVER
 62
     1
  6
CONTINUOUS
 10
-2.893467
 20
-1.443197
  0
VERTEX
  8
RIVER
 62
     1
  6
CONTINUOUS
 10
-2.881038
 20
-1.376908
  0
VERTEX
  8
RIVER
 62
     1
  6
CONTINUOUS
 10
-2.868121
 20
-1.311508
  0
VERTEX
  8
RIVER
 62
     1
  6
CONTINUOUS
 10
-2.855582
 20
-1.249495
  0
VERTEX
  8
RIVER
 62
     1
  6
CONTINUOUS
 10
-2.844286
 20
-1.193367
  0
VERTEX
  8
RIVER
 62
     1
  6
CONTINUOUS
 10
-2.835098
 20
-1.145622
  0
VERTEX
  8
RIVER
 62
     1
  6
CONTINUOUS
 10
-2.828882
 20
-1.108756
  0
VERTEX
  8
RIVER
 62
     1
  6
CONTINUOUS
 10
-2.824057
 20
-1.072134
  0
VERTEX
  8
RIVER
 62
     1
  6
CONTINUOUS
 10
-2.818684
 20
-1.025217
  0
VERTEX
  8
RIVER
 62
     1
  6
CONTINUOUS
 10
-2.813092
 20
-0.970648
  0
VERTEX
  8
RIVER
 62
     1
  6
CONTINUOUS
 10
-2.807609
 20
-0.911072
  0
VERTEX
  8
RIVER
 62
     1
  6
CONTINUOUS
 10
-2.802565
 20
-0.849132
  0
VERTEX
  8
RIVER
 62
     1
  6
CONTINUOUS
 10
-2.798289
 20
-0.787473
  0
VERTEX
  8
RIVER
 62
     1
  6
CONTINUOUS
 10
-2.795109
 20
-0.728737
  0
VERTEX
  8
RIVER
 62
     1
  6
CONTINUOUS
 10
-2.793354
 20
-0.675570
  0
VERTEX
  8
RIVER
 62
     1
  6
CONTINUOUS
 10
-2.793354
 20
-0.630614
  0
VERTEX
  8
RIVER
 62
     1
  6
CONTINUOUS
 10
-2.793712
 20
-0.595619
  0
VERTEX
  8
RIVER
 62
     1
  6
CONTINUOUS
 10
-2.793484
 20
-0.547788
  0
VERTEX
  8
RIVER
 62
     1
  6
CONTINUOUS
 10
-2.792766
 20
-0.489842
  0
VERTEX
  8
RIVER
 62
     1
  6
CONTINUOUS
 10
-2.791656
 20
-0.424502
  0
VERTEX
  8
RIVER
 62
     1
  6
CONTINUOUS
 10
-2.790252
 20
-0.354489
  0
VERTEX
  8
RIVER
 62
     1
  6
CONTINUOUS
 10
-2.788649
 20
-0.282523
  0
VERTEX
  8
RIVER
 62
     1
  6
CONTINUOUS
 10
-2.786945
 20
-0.211325
  0
VERTEX
  8
RIVER
 62
     1
  6
CONTINUOUS
 10
-2.785237
 20
-0.143615
  0
VERTEX
  8
RIVER
 62
     1
  6
CONTINUOUS
 10
-2.783621
 20
-0.082116
  0
VERTEX
  8
RIVER
 62
     1
  6
CONTINUOUS
 10
-2.782196
 20
-0.029547
  0
VERTEX
  8
RIVER
 62
     1
  6
CONTINUOUS
 10
-2.781058
 20
0.011371
  0
VERTEX
  8
RIVER
 62
     1
  6
CONTINUOUS
 10
-2.780304
 20
0.037917
  0
VERTEX
  8
RIVER
 62
     1
  6
CONTINUOUS
 10
-2.780031
 20
0.047370
  0
VERTEX
  8
RIVER
 62
     1
  6
CONTINUOUS
 10
-2.768189
 20
0.831937
  0
VERTEX
  8
RIVER
 62
     1
  6
CONTINUOUS
 10
-2.780031
 20
1.435906
  0
VERTEX
  8
RIVER
 62
     1
  6
CONTINUOUS
 10
-2.781535
 20
1.453600
  0
VERTEX
  8
RIVER
 62
     1
  6
CONTINUOUS
 10
-2.777626
 20
1.503075
  0
VERTEX
  8
RIVER
 62
     1
  6
CONTINUOUS
 10
-2.755676
 20
1.578918
  0
VERTEX
  8
RIVER
 62
     1
  6
CONTINUOUS
 10
-2.703055
 20
1.675717
  0
VERTEX
  8
RIVER
 62
     1
  6
CONTINUOUS
 10
-2.663176
 20
1.741275
  0
VERTEX
  8
RIVER
 62
     1
  6
CONTINUOUS
 10
-2.637154
 20
1.798528
  0
VERTEX
  8
RIVER
 62
     1
  6
CONTINUOUS
 10
-2.621083
 20
1.849283
  0
VERTEX
  8
RIVER
 62
     1
  6
CONTINUOUS
 10
-2.611056
 20
1.895351
  0
VERTEX
  8
RIVER
 62
     1
  6
CONTINUOUS
 10
-2.603168
 20
1.938541
  0
VERTEX
  8
RIVER
 62
     1
  6
CONTINUOUS
 10
-2.593512
 20
1.980661
  0
VERTEX
  8
RIVER
 62
     1
  6
CONTINUOUS
 10
-2.580538
 20
2.028552
  0
VERTEX
  8
RIVER
 62
     1
  6
CONTINUOUS
 10
-2.566208
 20
2.085490
  0
VERTEX
  8
RIVER
 62
     1
  6
CONTINUOUS
 10
-2.551878
 20
2.147937
  0
VERTEX
  8
RIVER
 62
     1
  6
CONTINUOUS
 10
-2.538905
 20
2.212358
  0
VERTEX
  8
RIVER
 62
     1
  6
CONTINUOUS
 10
-2.528645
 20
2.275217
  0
VERTEX
  8
RIVER
 62
     1
  6
CONTINUOUS
 10
-2.522457
 20
2.332976
  0
VERTEX
  8
RIVER
 62
     1
  6
CONTINUOUS
 10
-2.517303
 20
2.429416
  0
VERTEX
  8
RIVER
 62
     1
  6
CONTINUOUS
 10
-2.513794
 20
2.499539
  0
VERTEX
  8
RIVER
 62
     1
  6
CONTINUOUS
 10
-2.507654
 20
2.538740
  0
VERTEX
  8
RIVER
 62
     1
  6
CONTINUOUS
 10
-2.478486
 20
2.584411
  0
VERTEX
  8
RIVER
 62
     1
  6
CONTINUOUS
 10
-2.428265
 20
2.652450
  0
VERTEX
  8
RIVER
 62
     1
  6
CONTINUOUS
 10
-2.386268
 20
2.706016
  0
VERTEX
  8
RIVER
 62
     1
  6
CONTINUOUS
 10
-2.371060
 20
2.727014
  0
VERTEX
  8
RIVER
 62
     1
  6
CONTINUOUS
 10
-2.344369
 20
2.766353
  0
VERTEX
  8
RIVER
 62
     1
  6
CONTINUOUS
 10
-2.309275
 20
2.819193
  0
VERTEX
  8
RIVER
 62
     1
  6
CONTINUOUS
 10
-2.268861
 20
2.880693
  0
VERTEX
  8
RIVER
 62
     1
  6
CONTINUOUS
 10
-2.226209
 20
2.946012
  0
VERTEX
  8
RIVER
 62
     1
  6
CONTINUOUS
 10
-2.184400
 20
3.010309
  0
VERTEX
  8
RIVER
 62
     1
  6
CONTINUOUS
 10
-2.146517
 20
3.068745
  0
VERTEX
  8
RIVER
 62
     1
  6
CONTINUOUS
 10
-2.115642
 20
3.116477
  0
VERTEX
  8
RIVER
 62
     1
  6
CONTINUOUS
 10
-2.094857
 20
3.148667
  0
VERTEX
  8
RIVER
 62
     1
  6
CONTINUOUS
 10
-2.087244
 20
3.160472
  0
VERTEX
  8
RIVER
 62
     1
  6
CONTINUOUS
 10
-1.878520
 20
3.505386
  0
VERTEX
  8
RIVER
 62
     1
  6
CONTINUOUS
 10
-1.870433
 20
3.521375
  0
VERTEX
  8
RIVER
 62
     1
  6
CONTINUOUS
 10
-1.849845
 20
3.563721
  0
VERTEX
  8
RIVER
 62
     1
  6
CONTINUOUS
 10
-1.822268
 20
3.623996
  0
VERTEX
  8
RIVER
 62
     1
  6
CONTINUOUS
 10
-1.793210
 20
3.693770
  0
VERTEX
  8
RIVER
 62
     1
  6
CONTINUOUS
 10
-1.768181
 20
3.764612
  0
VERTEX
  8
RIVER
 62
     1
  6
CONTINUOUS
 10
-1.752693
 20
3.828094
  0
VERTEX
  8
RIVER
 62
     1
  6
CONTINUOUS
 10
-1.737890
 20
3.912527
  0
VERTEX
  8
RIVER
 62
     1
  6
CONTINUOUS
 10
-1.729008
 20
3.949919
  0
VERTEX
  8
RIVER
 62
     1
  6
CONTINUOUS
 10
-1.726047
 20
3.958362
  0
SEQEND
  8
0
  0
POLYLINE
  8
STREET
 62
     1
  6
CONTINUOUS
 66
     1
 40
0.003000
 41
0.003000
  0
VERTEX
  8
STREET
 62
     1
  6
CONTINUOUS
 10
-2.304449
 20
3.965197
  0
VERTEX
  8
STREET
 62
     1
  6
CONTINUOUS
 10
-2.334488
 20
3.703425
  0
VERTEX
  8
STREET
 62
     1
  6
CONTINUOUS
 10
-2.364528
 20
3.596142
  0
VERTEX
  8
STREET
 62
     1
  6
CONTINUOUS
 10
-2.385984
 20
3.514606
  0
VERTEX
  8
STREET
 62
     1
  6
CONTINUOUS
 10
-2.441772
 20
3.458819
  0
VERTEX
  8
STREET
 62
     1
  6
CONTINUOUS
 10
-2.544764
 20
3.390157
  0
VERTEX
  8
STREET
 62
     1
  6
CONTINUOUS
 10
-3.179882
 20
2.991063
  0
SEQEND
  8
0
  0
POLYLINE
  8
STREET
 62
     1
  6
CONTINUOUS
 66
     1
 40
0.003000
 41
0.003000
  0
VERTEX
  8
STREET
 62
     1
  6
CONTINUOUS
 10
-0.037937
 20
-1.701992
  0
VERTEX
  8
STREET
 62
     1
  6
CONTINUOUS
 10
0.724252
 20
-1.917543
  0
VERTEX
  8
STREET
 62
     1
  6
CONTINUOUS
 10
1.488165
 20
-2.129646
  0
VERTEX
  8
STREET
 62
     1
  6
CONTINUOUS
 10
3.515846
 20
-2.677783
  0
SEQEND
  8
0
  0
POLYLINE
  8
STREET
 62
     1
  6
CONTINUOUS
 66
     1
 40
0.003000
 41
0.003000
  0
VERTEX
  8
STREET
 62
     1
  6
CONTINUOUS
 10
2.229661
 20
0.146575
  0
VERTEX
  8
STREET
 62
     1
  6
CONTINUOUS
 10
2.221039
 20
-0.079323
  0
VERTEX
  8
STREET
 62
     1
  6
CONTINUOUS
 10
2.393480
 20
-0.493181
  0
VERTEX
  8
STREET
 62
     1
  6
CONTINUOUS
 10
2.488323
 20
-0.729425
  0
VERTEX
  8
STREET
 62
     1
  6
CONTINUOUS
 10
2.845276
 20
-1.567488
  0
VERTEX
  8
STREET
 62
     1
  6
CONTINUOUS
 10
3.100488
 20
-2.174480
  0
VERTEX
  8
STREET
 62
     1
  6
CONTINUOUS
 10
3.181535
 20
-2.315882
  0
VERTEX
  8
STREET
 62
     1
  6
CONTINUOUS
 10
3.364323
 20
-2.564197
  0
VERTEX
  8
STREET
 62
     1
  6
CONTINUOUS
 10
3.379843
 20
-2.600409
  0
VERTEX
  8
STREET
 62
     1
  6
CONTINUOUS
 10
3.386740
 20
-2.636622
  0
SEQEND
  8
0
  0
POLYLINE
  8
STREET
 62
     1
  6
CONTINUOUS
 66
     1
 40
0.003000
 41
0.003000
  0
VERTEX
  8
STREET
 62
     1
  6
CONTINUOUS
 10
-3.174791
 20
-0.584902
  0
VERTEX
  8
STREET
 62
     1
  6
CONTINUOUS
 10
-2.962594
 20
-0.511449
  0
VERTEX
  8
STREET
 62
     1
  6
CONTINUOUS
 10
-2.916346
 20
-0.500567
  0
VERTEX
  8
STREET
 62
     1
  6
CONTINUOUS
 10
-2.870098
 20
-0.495126
  0
VERTEX
  8
STREET
 62
     1
  6
CONTINUOUS
 10
-2.168693
 20
-0.494020
  0
VERTEX
  8
STREET
 62
     1
  6
CONTINUOUS
 10
-0.845362
 20
-0.490453
  0
VERTEX
  8
STREET
 62
     1
  6
CONTINUOUS
 10
-0.051720
 20
-0.488669
  0
SEQEND
  8
0
  0
POLYLINE
  8
STREET
 62
     1
  6
CONTINUOUS
 66
     1
 40
0.003000
 41
0.003000
  0
VERTEX
  8
STREET
 62
     1
  6
CONTINUOUS
 10
-3.176791
 20
-0.114114
  0
VERTEX
  8
STREET
 62
     1
  6
CONTINUOUS
 10
-2.462657
 20
-0.114114
  0
VERTEX
  8
STREET
 62
     1
  6
CONTINUOUS
 10
-2.337500
 20
-0.029449
  0
VERTEX
  8
STREET
 62
     1
  6
CONTINUOUS
 10
-1.696988
 20
-0.018406
  0
VERTEX
  8
STREET
 62
     1
  6
CONTINUOUS
 10
-0.647874
 20
-0.018406
  0
VERTEX
  8
STREET
 62
     1
  6
CONTINUOUS
 10
-0.051535
 20
-0.014724
  0
SEQEND
  8
0
  0
POLYLINE
  8
STREET
 62
     1
  6
CONTINUOUS
 66
     1
 40
0.003000
 41
0.003000
  0
VERTEX
  8
STREET
 62
     1
  6
CONTINUOUS
 10
-3.179134
 20
1.203248
  0
VERTEX
  8
STREET
 62
     1
  6
CONTINUOUS
 10
-1.464075
 20
1.200787
  0
VERTEX
  8
STREET
 62
     1
  6
CONTINUOUS
 10
-0.177165
 20
1.200787
  0
VERTEX
  8
STREET
 62
     1
  6
CONTINUOUS
 10
1.230315
 20
1.203248
  0
SEQEND
  8
0
  0
POLYLINE
  8
STREET
 62
     1
  6
CONTINUOUS
 66
     1
 40
0.003000
 41
0.003000
  0
VERTEX
  8
STREET
 62
     1
  6
CONTINUOUS
 10
-2.102925
 20
1.199728
  0
VERTEX
  8
STREET
 62
     1
  6
CONTINUOUS
 10
-2.105646
 20
-0.492406
  0
SEQEND
  8
0
  0
POLYLINE
  8
STREET
 62
     1
  6
CONTINUOUS
 66
     1
 40
0.003000
 41
0.003000
  0
VERTEX
  8
STREET
 62
     1
  6
CONTINUOUS
 10
-0.051614
 20
3.110614
  0
VERTEX
  8
STREET
 62
     1
  6
CONTINUOUS
 10
-0.047630
 20
0.310630
  0
SEQEND
  8
0
  0
POLYLINE
  8
STREET
 62
     1
  6
CONTINUOUS
 66
     1
 40
0.003000
 41
0.003000
  0
VERTEX
  8
STREET
 62
     1
  6
CONTINUOUS
 10
-2.612650
 20
0.713622
  0
VERTEX
  8
STREET
 62
     1
  6
CONTINUOUS
 10
0.967354
 20
0.713622
  0
VERTEX
  8
STREET
 62
     1
  6
CONTINUOUS
 10
0.967394
 20
0.313843
  0
SEQEND
  8
0
  0
POLYLINE
  8
STREET
 62
     1
  6
CONTINUOUS
 66
     1
 40
0.003000
 41
0.003000
  0
VERTEX
  8
STREET
 62
     1
  6
CONTINUOUS
 10
1.452252
 20
0.309433
  0
VERTEX
  8
STREET
 62
     1
  6
CONTINUOUS
 10
1.453795
 20
-0.459906
  0
VERTEX
  8
STREET
 62
     1
  6
CONTINUOUS
 10
2.376693
 20
-0.460677
  0
SEQEND
  8
0
  0
POLYLINE
  8
STREET
 62
     1
  6
CONTINUOUS
 66
     1
 40
0.003000
 41
0.003000
  0
VERTEX
  8
STREET
 62
     1
  6
CONTINUOUS
 10
3.522665
 20
0.944173
  0
VERTEX
  8
STREET
 62
     1
  6
CONTINUOUS
 10
2.794571
 20
-0.223063
  0
SEQEND
  8
0
  0
POLYLINE
  8
STREET
 62
     1
  6
CONTINUOUS
 66
     1
 40
0.003000
 41
0.003000
  0
VERTEX
  8
STREET
 62
     1
  6
CONTINUOUS
 10
3.221614
 20
2.277606
  0
VERTEX
  8
STREET
 62
     1
  6
CONTINUOUS
 10
3.517197
 20
2.708504
  0
SEQEND
  8
0
  0
POLYLINE
  8
STREET
 62
     1
  6
CONTINUOUS
 66
     1
 40
0.003000
 41
0.003000
  0
VERTEX
  8
STREET
 62
     1
  6
CONTINUOUS
 10
-1.806823
 20
1.593622
  0
VERTEX
  8
STREET
 62
     1
  6
CONTINUOUS
 10
1.050992
 20
1.547165
  0
VERTEX
  8
STREET
 62
     1
  6
CONTINUOUS
 10
1.347307
 20
1.380488
  0
SEQEND
  8
0
  0
POLYLINE
  8
STREET
 62
     1
  6
CONTINUOUS
 66
     1
 40
0.003000
 41
0.003000
  0
VERTEX
  8
STREET
 62
     1
  6
CONTINUOUS
 10
-0.557906
 20
1.571087
  0
VERTEX
  8
STREET
 62
     1
  6
CONTINUOUS
 10
-0.562240
 20
-0.486654
  0
SEQEND
  8
0
  0
POLYLINE
  8
STREET
 62
     1
  6
CONTINUOUS
 66
     1
 40
0.003000
 41
0.003000
  0
VERTEX
  8
STREET
 62
     1
  6
CONTINUOUS
 10
-1.005354
 20
1.578583
  0
VERTEX
  8
STREET
 62
     1
  6
CONTINUOUS
 10
-1.003937
 20
-0.488583
  0
SEQEND
  8
0
  0
POLYLINE
  8
STREET
 62
     1
  6
CONTINUOUS
 66
     1
 40
0.003000
 41
0.003000
  0
VERTEX
  8
STREET
 62
     1
  6
CONTINUOUS
 10
0.465945
 20
3.957425
  0
VERTEX
  8
STREET
 62
     1
  6
CONTINUOUS
 10
0.681126
 20
3.148854
  0
VERTEX
  8
STREET
 62
     1
  6
CONTINUOUS
 10
0.701252
 20
3.114846
  0
VERTEX
  8
STREET
 62
     1
  6
CONTINUOUS
 10
0.734091
 20
3.090406
  0
VERTEX
  8
STREET
 62
     1
  6
CONTINUOUS
 10
0.815657
 20
3.039394
  0
VERTEX
  8
STREET
 62
     1
  6
CONTINUOUS
 10
0.858028
 20
3.018138
  0
VERTEX
  8
STREET
 62
     1
  6
CONTINUOUS
 10
0.925823
 20
3.017075
  0
VERTEX
  8
STREET
 62
     1
  6
CONTINUOUS
 10
1.065650
 20
3.019201
  0
VERTEX
  8
STREET
 62
     1
  6
CONTINUOUS
 10
1.103783
 20
3.004323
  0
VERTEX
  8
STREET
 62
     1
  6
CONTINUOUS
 10
1.134504
 20
2.976693
  0
VERTEX
  8
STREET
 62
     1
  6
CONTINUOUS
 10
1.160685
 20
2.924079
  0
VERTEX
  8
STREET
 62
     1
  6
CONTINUOUS
 10
1.188937
 20
2.876992
  0
VERTEX
  8
STREET
 62
     1
  6
CONTINUOUS
 10
1.247795
 20
2.736909
  0
VERTEX
  8
STREET
 62
     1
  6
CONTINUOUS
 10
1.266630
 20
2.687469
  0
VERTEX
  8
STREET
 62
     1
  6
CONTINUOUS
 10
1.291350
 20
2.652154
  0
VERTEX
  8
STREET
 62
     1
  6
CONTINUOUS
 10
1.338437
 20
2.615661
  0
VERTEX
  8
STREET
 62
     1
  6
CONTINUOUS
 10
1.800953
 20
2.315122
  0
VERTEX
  8
STREET
 62
     1
  6
CONTINUOUS
 10
3.515748
 20
1.229921
  0
SEQEND
  8
0
  0
POLYLINE
  8
STREET
 62
     1
  6
CONTINUOUS
 66
     1
 40
0.003000
 41
0.003000
  0
VERTEX
  8
STREET
 62
     1
  6
CONTINUOUS
 10
2.936913
 20
1.601953
  0
VERTEX
  8
STREET
 62
     1
  6
CONTINUOUS
 10
3.307173
 20
2.164055
  0
VERTEX
  8
STREET
 62
     1
  6
CONTINUOUS
 10
3.352732
 20
2.213756
  0
VERTEX
  8
STREET
 62
     1
  6
CONTINUOUS
 10
3.412787
 20
2.246890
  0
VERTEX
  8
STREET
 62
     1
  6
CONTINUOUS
 10
3.514260
 20
2.313157
  0
SEQEND
  8
0
  0
POLYLINE
  8
STREET
 62
     1
  6
CONTINUOUS
 66
     1
 40
0.003000
 41
0.003000
  0
VERTEX
  8
STREET
 62
     1
  6
CONTINUOUS
 10
2.399098
 20
1.940402
  0
VERTEX
  8
STREET
 62
     1
  6
CONTINUOUS
 10
3.070886
 20
3.080945
  0
SEQEND
  8
0
  0
POLYLINE
  8
STREET
 62
     1
  6
CONTINUOUS
 66
     1
 40
0.003000
 41
0.003000
  0
VERTEX
  8
STREET
 62
     1
  6
CONTINUOUS
 10
0.666709
 20
2.105071
  0
VERTEX
  8
STREET
 62
     1
  6
CONTINUOUS
 10
3.244031
 20
0.501575
  0
SEQEND
  8
0
  0
POLYLINE
  8
STREET
 62
     1
  6
CONTINUOUS
 66
     1
 40
0.003000
 41
0.003000
  0
VERTEX
  8
STREET
 62
     1
  6
CONTINUOUS
 10
1.878740
 20
2.263386
  0
VERTEX
  8
STREET
 62
     1
  6
CONTINUOUS
 10
0.965024
 20
0.714449
  0
VERTEX
  8
STREET
 62
     1
  6
CONTINUOUS
 10
1.516602
 20
0.448654
  0
SEQEND
  8
0
  0
POLYLINE
  8
STREET
 62
     1
  6
CONTINUOUS
 66
     1
 40
0.003000
 41
0.003000
  0
VERTEX
  8
STREET
 62
     1
  6
CONTINUOUS
 10
1.452862
 20
0.314232
  0
VERTEX
  8
STREET
 62
     1
  6
CONTINUOUS
 10
2.221205
 20
1.663547
  0
SEQEND
  8
0
  0
POLYLINE
  8
STREET
 62
     1
  6
CONTINUOUS
 66
     1
 40
0.003000
 41
0.003000
  0
VERTEX
  8
STREET
 62
     1
  6
CONTINUOUS
 10
1.412539
 20
2.151122
  0
VERTEX
  8
STREET
 62
     1
  6
CONTINUOUS
 10
3.503705
 20
0.917669
  0
SEQEND
  8
0
  0
POLYLINE
  8
STREET
 62
     1
  6
CONTINUOUS
 66
     1
 40
0.003000
 41
0.003000
  0
VERTEX
  8
STREET
 62
     1
  6
CONTINUOUS
 10
1.252417
 20
1.195783
  0
VERTEX
  8
STREET
 62
     1
  6
CONTINUOUS
 10
3.014079
 20
0.130409
  0
SEQEND
  8
0
  0
POLYLINE
  8
STREET
 62
     1
  6
CONTINUOUS
 66
     1
 40
0.003000
 41
0.003000
  0
VERTEX
  8
STREET
 62
     1
  6
CONTINUOUS
 10
1.052681
 20
1.549874
  0
VERTEX
  8
STREET
 62
     1
  6
CONTINUOUS
 10
1.589764
 20
2.450394
  0
SEQEND
  8
0
  0
POLYLINE
  8
ROAD
 62
     1
  6
CONTINUOUS
 66
     1
 40
0.003000
 41
0.003000
  0
VERTEX
  8
ROAD
 62
     1
  6
CONTINUOUS
 10
-0.185362
 20
3.955441
  0
VERTEX
  8
ROAD
 62
     1
  6
CONTINUOUS
 10
0.736736
 20
3.614563
  0
VERTEX
  8
ROAD
 62
     1
  6
CONTINUOUS
 10
1.305390
 20
3.411921
  0
VERTEX
  8
ROAD
 62
     1
  6
CONTINUOUS
 10
1.446768
 20
3.341232
  0
VERTEX
  8
ROAD
 62
     1
  6
CONTINUOUS
 10
2.122240
 20
2.931236
  0
VERTEX
  8
ROAD
 62
     1
  6
CONTINUOUS
 10
2.898248
 20
2.467831
  0
VERTEX
  8
ROAD
 62
     1
  6
CONTINUOUS
 10
3.507744
 20
2.103390
  0
SEQEND
  8
0
  0
POLYLINE
  8
ROAD
 62
     1
  6
CONTINUOUS
 66
     1
 40
0.003000
 41
0.003000
  0
VERTEX
  8
ROAD
 62
     1
  6
CONTINUOUS
 10
2.174748
 20
0.186736
  0
VERTEX
  8
ROAD
 62
     1
  6
CONTINUOUS
 10
2.613012
 20
-0.106654
  0
VERTEX
  8
ROAD
 62
     1
  6
CONTINUOUS
 10
3.379394
 20
-0.610972
  0
VERTEX
  8
ROAD
 62
     1
  6
CONTINUOUS
 10
3.511949
 20
-0.687154
  0
SEQEND
  8
0
  0
POLYLINE
  8
ROAD
 62
     1
  6
CONTINUOUS
 66
     1
 40
0.003000
 41
0.003000
  0
VERTEX
  8
ROAD
 62
     1
  6
CONTINUOUS
 10
2.097906
 20
0.494311
  0
VERTEX
  8
ROAD
 62
     1
  6
CONTINUOUS
 10
2.345035
 20
0.886012
  0
VERTEX
  8
ROAD
 62
     1
  6
CONTINUOUS
 10
2.830555
 20
1.650028
  0
SEQEND
  8
0
  0
POLYLINE
  8
ROAD
 62
     1
  6
CONTINUOUS
 66
     1
 40
0.003000
 41
0.003000
  0
VERTEX
  8
ROAD
 62
     1
  6
CONTINUOUS
 10
-1.547024
 20
1.193197
  0
VERTEX
  8
ROAD
 62
     1
  6
CONTINUOUS
 10
-1.544441
 20
-0.836787
  0
SEQEND
  8
0
  0
POLYLINE
  8
ROAD
 62
     1
  6
CONTINUOUS
 66
     1
 40
0.003000
 41
0.003000
  0
VERTEX
  8
ROAD
 62
     1
  6
CONTINUOUS
 10
-0.048264
 20
0.303709
  0
VERTEX
  8
ROAD
 62
     1
  6
CONTINUOUS
 10
-0.045528
 20
-2.803197
  0
SEQEND
  8
0
  0
POLYLINE
  8
ROAD
 62
     1
  6
CONTINUOUS
 66
     1
 40
0.003000
 41
0.003000
  0
VERTEX
  8
ROAD
 62
     1
  6
CONTINUOUS
 10
-3.176791
 20
0.309213
  0
VERTEX
  8
ROAD
 62
     1
  6
CONTINUOUS
 10
1.785260
 20
0.313827
  0
SEQEND
  8
0
  0
POLYLINE
  8
ROAD
 62
     1
  6
CONTINUOUS
 66
     1
 40
0.003000
 41
0.003000
 70
     1
  0
VERTEX
  8
ROAD
 62
     1
  6
CONTINUOUS
 10
1.826709
 20
0.313827
  0
VERTEX
  8
ROAD
 62
     1
  6
CONTINUOUS
 10
1.853354
 20
0.377480
  0
VERTEX
  8
ROAD
 62
     1
  6
CONTINUOUS
 10
1.884441
 20
0.414488
  0
VERTEX
  8
ROAD
 62
     1
  6
CONTINUOUS
 10
1.919969
 20
0.445575
  0
VERTEX
  8
ROAD
 62
     1
  6
CONTINUOUS
 10
1.971780
 20
0.463339
  0
VERTEX
  8
ROAD
 62
     1
  6
CONTINUOUS
 10
2.026551
 20
0.466299
  0
VERTEX
  8
ROAD
 62
     1
  6
CONTINUOUS
 10
2.082803
 20
0.450016
  0
VERTEX
  8
ROAD
 62
     1
  6
CONTINUOUS
 10
2.136094
 20
0.411528
  0
VERTEX
  8
ROAD
 62
     1
  6
CONTINUOUS
 10
2.158299
 20
0.367118
  0
VERTEX
  8
ROAD
 62
     1
  6
CONTINUOUS
 10
2.158299
 20
0.324189
  0
VERTEX
  8
ROAD
 62
     1
  6
CONTINUOUS
 10
2.156819
 20
0.267937
  0
VERTEX
  8
ROAD
 62
     1
  6
CONTINUOUS
 10
2.133134
 20
0.201323
  0
VERTEX
  8
ROAD
 62
     1
  6
CONTINUOUS
 10
2.100567
 20
0.159874
  0
VERTEX
  8
ROAD
 62
     1
  6
CONTINUOUS
 10
2.057638
 20
0.131748
  0
VERTEX
  8
ROAD
 62
     1
  6
CONTINUOUS
 10
1.992504
 20
0.127307
  0
VERTEX
  8
ROAD
 62
     1
  6
CONTINUOUS
 10
1.922929
 20
0.143591
  0
VERTEX
  8
ROAD
 62
     1
  6
CONTINUOUS
 10
1.874079
 20
0.177638
  0
VERTEX
  8
ROAD
 62
     1
  6
CONTINUOUS
 10
1.847433
 20
0.219087
  0
VERTEX
  8
ROAD
 62
     1
  6
CONTINUOUS
 10
1.825228
 20
0.263496
  0
SEQEND
  8
0
  0
POLYLINE
  8
RAILWAY
 62
     1
  6
CONTINUOUS
 66
     1
 40
0.003000
 41
0.003000
  0
VERTEX
  8
RAILWAY
 62
     1
  6
CONTINUOUS
 10
-3.179114
 20
2.855039
  0
VERTEX
  8
RAILWAY
 62
     1
  6
CONTINUOUS
 10
-3.031988
 20
3.047894
  0
VERTEX
  8
RAILWAY
 62
     1
  6
CONTINUOUS
 10
-2.912697
 20
3.202972
  0
VERTEX
  8
RAILWAY
 62
     1
  6
CONTINUOUS
 10
-2.795394
 20
3.358051
  0
VERTEX
  8
RAILWAY
 62
     1
  6
CONTINUOUS
 10
-2.690020
 20
3.509154
  0
VERTEX
  8
RAILWAY
 62
     1
  6
CONTINUOUS
 10
-2.616457
 20
3.632421
  0
VERTEX
  8
RAILWAY
 62
     1
  6
CONTINUOUS
 10
-2.580669
 20
3.717913
  0
VERTEX
  8
RAILWAY
 62
     1
  6
CONTINUOUS
 10
-2.542894
 20
3.785512
  0
VERTEX
  8
RAILWAY
 62
     1
  6
CONTINUOUS
 10
-2.507106
 20
3.809370
  0
VERTEX
  8
RAILWAY
 62
     1
  6
CONTINUOUS
 10
-2.465354
 20
3.825276
  0
VERTEX
  8
RAILWAY
 62
     1
  6
CONTINUOUS
 10
-2.415650
 20
3.837205
  0
VERTEX
  8
RAILWAY
 62
     1
  6
CONTINUOUS
 10
-2.359980
 20
3.853110
  0
VERTEX
  8
RAILWAY
 62
     1
  6
CONTINUOUS
 10
-2.314252
 20
3.861063
  0
VERTEX
  8
RAILWAY
 62
     1
  6
CONTINUOUS
 10
-2.266535
 20
3.861063
  0
VERTEX
  8
RAILWAY
 62
     1
  6
CONTINUOUS
 10
-2.208878
 20
3.855098
  0
VERTEX
  8
RAILWAY
 62
     1
  6
CONTINUOUS
 10
-2.161161
 20
3.845157
  0
VERTEX
  8
RAILWAY
 62
     1
  6
CONTINUOUS
 10
-2.109469
 20
3.831240
  0
VERTEX
  8
RAILWAY
 62
     1
  6
CONTINUOUS
 10
-2.049823
 20
3.819311
  0
VERTEX
  8
RAILWAY
 62
     1
  6
CONTINUOUS
 10
-1.994154
 20
3.815335
  0
VERTEX
  8
RAILWAY
 62
     1
  6
CONTINUOUS
 10
-1.952402
 20
3.805394
  0
VERTEX
  8
RAILWAY
 62
     1
  6
CONTINUOUS
 10
-1.906673
 20
3.793465
  0
VERTEX
  8
RAILWAY
 62
     1
  6
CONTINUOUS
 10
-1.660138
 20
3.749724
  0
VERTEX
  8
RAILWAY
 62
     1
  6
CONTINUOUS
 10
-1.258524
 20
3.678150
  0
VERTEX
  8
RAILWAY
 62
     1
  6
CONTINUOUS
 10
-0.691890
 20
3.570787
  0
VERTEX
  8
RAILWAY
 62
     1
  6
CONTINUOUS
 10
-0.081516
 20
3.455472
  0
VERTEX
  8
RAILWAY
 62
     1
  6
CONTINUOUS
 10
0.501024
 20
3.346122
  0
VERTEX
  8
RAILWAY
 62
     1
  6
CONTINUOUS
 10
0.672008
 20
3.306358
  0
VERTEX
  8
RAILWAY
 62
     1
  6
CONTINUOUS
 10
0.972224
 20
3.288465
  0
VERTEX
  8
RAILWAY
 62
     1
  6
CONTINUOUS
 10
1.274429
 20
3.258642
  0
VERTEX
  8
RAILWAY
 62
     1
  6
CONTINUOUS
 10
1.461319
 20
3.248701
  0
VERTEX
  8
RAILWAY
 62
     1
  6
CONTINUOUS
 10
1.594528
 20
3.268583
  0
VERTEX
  8
RAILWAY
 62
     1
  6
CONTINUOUS
 10
1.739665
 20
3.300394
  0
VERTEX
  8
RAILWAY
 62
     1
  6
CONTINUOUS
 10
1.916614
 20
3.342146
  0
VERTEX
  8
RAILWAY
 62
     1
  6
CONTINUOUS
 10
2.099528
 20
3.377933
  0
VERTEX
  8
RAILWAY
 62
     1
  6
CONTINUOUS
 10
2.214843
 20
3.399803
  0
VERTEX
  8
RAILWAY
 62
     1
  6
CONTINUOUS
 10
2.318228
 20
3.397815
  0
VERTEX
  8
RAILWAY
 62
     1
  6
CONTINUOUS
 10
2.407697
 20
3.399803
  0
VERTEX
  8
RAILWAY
 62
     1
  6
CONTINUOUS
 10
2.511083
 20
3.399803
  0
VERTEX
  8
RAILWAY
 62
     1
  6
CONTINUOUS
 10
2.636339
 20
3.371969
  0
VERTEX
  8
RAILWAY
 62
     1
  6
CONTINUOUS
 10
2.719843
 20
3.348110
  0
VERTEX
  8
RAILWAY
 62
     1
  6
CONTINUOUS
 10
2.805335
 20
3.282500
  0
VERTEX
  8
RAILWAY
 62
     1
  6
CONTINUOUS
 10
2.910709
 20
3.198996
  0
VERTEX
  8
RAILWAY
 62
     1
  6
CONTINUOUS
 10
3.035965
 20
3.109528
  0
VERTEX
  8
RAILWAY
 62
     1
  6
CONTINUOUS
 10
3.517106
 20
2.759606
  0
SEQEND
  8
0
  0
POLYLINE
  8
ISOLATION
 62
     1
  6
CONTINUOUS
 66
     1
 40
0.003000
 41
0.003000
  0
VERTEX
  8
ISOLATION
 62
     1
  6
CONTINUOUS
 10
-2.315122
 20
0.155067
  0
VERTEX
  8
ISOLATION
 62
     1
  6
CONTINUOUS
 10
-2.184512
 20
0.155067
  0
SEQEND
  8
0
  0
POLYLINE
  8
ISOLATION
 62
     1
  6
CONTINUOUS
 66
     1
 40
0.003000
 41
0.003000
  0
VERTEX
  8
ISOLATION
 62
     1
  6
CONTINUOUS
 10
-1.759878
 20
0.944862
  0
VERTEX
  8
ISOLATION
 62
     1
  6
CONTINUOUS
 10
-1.676610
 20
0.944862
  0
SEQEND
  8
0
  0
POLYLINE
  8
ISOLATION
 62
     1
  6
CONTINUOUS
 66
     1
 40
0.003000
 41
0.003000
  0
VERTEX
  8
ISOLATION
 62
     1
  6
CONTINUOUS
 10
-1.209953
 20
0.898976
  0
VERTEX
  8
ISOLATION
 62
     1
  6
CONTINUOUS
 10
-1.135858
 20
0.898976
  0
SEQEND
  8
0
  0
POLYLINE
  8
ISOLATION
 62
     1
  6
CONTINUOUS
 66
     1
 40
0.003000
 41
0.003000
  0
VERTEX
  8
ISOLATION
 62
     1
  6
CONTINUOUS
 10
-2.602016
 20
3.690047
  0
VERTEX
  8
ISOLATION
 62
     1
  6
CONTINUOUS
 10
-2.537181
 20
3.690047
  0
SEQEND
  8
0
  0
POLYLINE
  8
ISOLATION
 62
     1
  6
CONTINUOUS
 66
     1
 40
0.003000
 41
0.003000
  0
VERTEX
  8
ISOLATION
 62
     1
  6
CONTINUOUS
 10
0.913386
 20
3.292126
  0
VERTEX
  8
ISOLATION
 62
     1
  6
CONTINUOUS
 10
0.980315
 20
3.292126
  0
SEQEND
  8
0
  0
POLYLINE
  8
ISOLATION
 62
     1
  6
CONTINUOUS
 66
     1
 40
0.003000
 41
0.003000
  0
VERTEX
  8
ISOLATION
 62
     1
  6
CONTINUOUS
 10
0.594469
 20
1.021929
  0
VERTEX
  8
ISOLATION
 62
     1
  6
CONTINUOUS
 10
0.685925
 20
1.021929
  0
SEQEND
  8
0
  0
POLYLINE
  8
ISOLATION
 62
     1
  6
CONTINUOUS
 66
     1
 40
0.003000
 41
0.003000
  0
VERTEX
  8
ISOLATION
 62
     1
  6
CONTINUOUS
 10
0.148929
 20
0.490000
  0
VERTEX
  8
ISOLATION
 62
     1
  6
CONTINUOUS
 10
0.233811
 20
0.490000
  0
SEQEND
  8
0
  0
POLYLINE
  8
ISOLATION
 62
     1
  6
CONTINUOUS
 66
     1
 40
0.003000
 41
0.003000
  0
VERTEX
  8
ISOLATION
 62
     1
  6
CONTINUOUS
 10
2.228799
 20
1.353661
  0
VERTEX
  8
ISOLATION
 62
     1
  6
CONTINUOUS
 10
2.307886
 20
1.353661
  0
SEQEND
  8
0
  0
TEXT
  8
ANNOTATION
 62
     1
 10
0.247764
 20
0.559240
 40
0.109337
  1
‏¸®
 41
1.000000
  7
SN0
 71
     0
 72
     5
 11
0.664539
 21
0.559240
  0
TEXT
  8
ANNOTATION
 62
     1
 10
0.700299
 20
1.030268
 40
0.109337
  1
µו½÷
 41
1.000000
  7
SN0
 71
     0
 72
     5
 11
1.255999
 21
1.030268
  0
TEXT
  8
ANNOTATION
 62
     1
 10
2.378335
 20
1.331512
 40
0.109337
  1
א½°÷
 41
1.000000
  7
SN0
 71
     0
 72
     5
 11
2.934034
 21
1.331512
  0
TEXT
  8
ANNOTATION
 62
     1
 10
-1.120594
 20
0.963929
 40
0.109337
  1
°®½÷
 41
1.000000
  7
SN0
 71
     0
 72
     5
 11
-0.564895
 21
0.963929
  0
TEXT
  8
ANNOTATION
 62
     1
 10
-2.100421
 20
0.111787
 40
0.109337
  1
³ו‎³
 41
1.000000
  7
SN0
 71
     0
 72
     5
 11
-1.405797
 21
0.111787
  0
TEXT
  8
ANNOTATION
 62
     1
 10
-1.867965
 20
1.002646
 40
0.109337
  1
¹‏±¾¾ח÷
 41
1.000000
  7
SN0
 71
     0
 72
     5
 11
-1.312265
 21
1.002646
  0
TEXT
  8
ANNOTATION
 62
     1
 10
-2.445819
 20
3.699713
 40
0.109337
  1
¥¾
 41
1.000000
  7
SN0
 71
     0
 72
     5
 11
-2.029044
 21
3.699713
  0
TEXT
  8
ANNOTATION
 62
     1
 10
0.996417
 20
3.315717
 40
0.109337
  1
³¾
 41
1.000000
  7
SN0
 71
     0
 72
     5
 11
1.413192
 21
3.315717
  0
TEXT
  8
ANNOTATION
 62
     1
 10
-2.192717
 20
2.983819
 40
0.109337
  1
¥
 41
1.000000
  7
SN0
 71
     0
 72
     5
 11
-2.053792
 21
2.983819
  0
TEXT
  8
ANNOTATION
 62
     1
 10
-2.723870
 20
1.572429
 40
0.109337
  1
¶¼
 41
1.000000
  7
SN0
 71
     0
 72
     5
 11
-2.584945
 21
1.572429
  0
TEXT
  8
ANNOTATION
 62
     1
 10
-2.818071
 20
-1.012378
 40
0.109337
  1

 41
1.000000
  7
SN0
 71
     0
 72
     5
 11
-2.679146
 21
-1.012378
  0
TEXT
  8
ANNOTATION
 62
     1
 10
-3.110315
 20
-2.357291
 40
0.109337
  1
÷
 41
1.000000
  7
SN0
 71
     0
 72
     5
 11
-2.971390
 21
-2.357291
  0
TEXT
  8
ANNOTATION
 62
     1
 10
-0.107575
 20
3.479811
 40
0.109337
  1
°
 41
1.000000
  7
SN0
 71
     0
 72
     5
 11
0.031350
 21
3.479811
  0
TEXT
  8
ANNOTATION
 62
     1
 10
2.503843
 20
3.452268
 40
0.109337
  1
»·
 41
1.000000
  7
SN0
 71
     0
 72
     5
 11
2.642767
 21
3.452268
  0
TEXT
  8
ANNOTATION
 62
     1
 10
0.933028
 20
3.587815
 40
0.109337
  1
°
 41
1.000000
  7
SN0
 71
     0
 72
     5
 11
1.071953
 21
3.587815
  0
TEXT
  8
ANNOTATION
 62
     1
 10
2.388362
 20
2.850524
 40
0.109337
  1
ר
 41
1.000000
  7
SN0
 71
     0
 72
     5
 11
2.527287
 21
2.850524
  0
TEXT
  8
ANNOTATION
 62
     1
 10
1.529772
 20
0.547244
 40
0.109337
  1
¶¯¹«°
 41
1.000000
  7
SN0
 71
     0
 72
     5
 11
2.085471
 21
0.547244
  0
TEXT
  8
ANNOTATION
 62
     1
 10
-0.947323
 20
0.128504
 40
0.109337
  1
°»¹«°
 41
1.000000
  7
SN0
 71
     0
 72
     5
 11
-0.391623
 21
0.128504
  0
TEXT
  8
ANNOTATION
 62
     1
 10
-2.904965
 20
0.373248
 40
0.109337
  1
¸
 41
1.000000
  7
SN0
 71
     0
 72
     5
 11
-2.766040
 21
0.373248
  0
TEXT
  8
ANNOTATION
 62
     1
 10
-1.916130
 20
0.345709
 40
0.109337
  1
ת
 41
1.000000
  7
SN0
 71
     0
 72
     5
 11
-1.777205
 21
0.345709
  0
TEXT
  8
ANNOTATION
 62
     1
 10
-0.931303
 20
0.355984
 40
0.109337
  1
´ף
 41
1.000000
  7
SN0
 71
     0
 72
     5
 11
-0.792378
 21
0.355984
  0
TEXT
  8
ANNOTATION
 62
     1
 10
-0.072165
 20
0.383189
 40
0.109337
  1
½
 41
1.000000
  7
SN0
 71
     0
 72
     5
 11
0.066760
 21
0.383189
  0
TEXT
  8
ANNOTATION
 62
     1
 10
-0.139882
 20
-0.320256
 40
0.109337
  1
°¢
 41
1.000000
  7
SN0
 71
     0
 72
     5
 11
-0.000957
 21
-0.320256
  0
TEXT
  8
ANNOTATION
 62
     1
 10
-0.132520
 20
-0.953406
 40
0.109337
  1
¶
 41
1.000000
  7
SN0
 71
     0
 72
     5
 11
0.006405
 21
-0.953406
  0
TEXT
  8
ANNOTATION
 62
     1
 10
-0.126457
 20
-1.517480
 40
0.109337
  1
¶
 41
1.000000
  7
SN0
 71
     0
 72
     5
 11
0.012468
 21
-1.517480
  0
TEXT
  8
ANNOTATION
 62
     1
 10
-0.113811
 20
-2.212992
 40
0.109337
  1
´ף
 41
1.000000
  7
SN0
 71
     0
 72
     5
 11
0.025114
 21
-2.212992
  0
TEXT
  8
ANNOTATION
 62
     1
 10
-0.126457
 20
-2.731465
 40
0.109337
  1
½
 41
1.000000
  7
SN0
 71
     0
 72
     5
 11
0.012468
 21
-2.731465
  0
TEXT
  8
ANNOTATION
 62
     1
 10
2.700067
 20
-0.134165
 40
0.109337
  1
½¨
 41
1.000000
  7
SN0
 71
     0
 72
     5
 11
2.838992
 21
-0.134165
  0
TEXT
  8
ANNOTATION
 62
     1
 10
3.312732
 20
-0.523280
 40
0.109337
  1
ט
 41
1.000000
  7
SN0
 71
     0
 72
     5
 11
3.451657
 21
-0.523280
  0
ENDSEC
  0
EOF
